<svg width="74" height="74" viewBox="0 0 74 74" fill="none" xmlns="http://www.w3.org/2000/svg">
<path d="M17.7422 10.7728C19.3321 7.81937 22.2704 6 25.4503 6L48.5497 6C51.7296 6 54.6679 7.81937 56.2578 10.7728L67.8076 32.2272C69.3975 35.1806 69.3975 38.8194 67.8076 41.7728L56.2578 63.2272C54.6679 66.1806 51.7296 68 48.5497 68H25.4503C22.2704 68 19.3321 66.1806 17.7422 63.2272L6.19244 41.7728C4.60252 38.8194 4.60252 35.1806 6.19244 32.2272L17.7422 10.7728Z" fill="#DC2626"/>
<path d="M37 28.5417C36.8833 28.5417 36.7667 28.53 36.6617 28.5067C36.545 28.4833 36.44 28.4483 36.335 28.4133C36.23 28.3667 36.125 28.3083 36.0316 28.25C35.9383 28.18 35.845 28.11 35.7633 28.0283C35.4367 27.7017 35.25 27.2583 35.25 26.7917C35.25 26.325 35.4367 25.8817 35.7633 25.555C35.845 25.4733 35.9383 25.4033 36.0316 25.3333C36.125 25.275 36.23 25.2167 36.335 25.1817C36.44 25.135 36.545 25.1 36.6617 25.0767C37.2217 24.96 37.8283 25.1467 38.2367 25.555C38.5633 25.8817 38.75 26.325 38.75 26.7917C38.75 27.2583 38.5633 27.7017 38.2367 28.0283C37.91 28.355 37.455 28.5417 37 28.5417Z" fill="white"/>
<path d="M36.7702 33.2685L36.7598 33.2664C36.6844 33.2513 36.6133 33.2289 36.5176 33.1972C36.4509 33.1662 36.3809 33.1278 36.314 33.0867C36.2255 33.0203 36.166 32.9739 36.1169 32.9248L35.7633 33.2784L36.1169 32.9248C35.8829 32.6908 35.75 32.3742 35.75 32.0417C35.75 31.7091 35.8829 31.3925 36.1169 31.1586C36.166 31.1095 36.2255 31.0631 36.3139 30.9967C36.3884 30.9511 36.448 30.9211 36.4931 30.906L36.516 30.8984L36.5381 30.8886C36.613 30.8553 36.6829 30.8323 36.7598 30.817L36.7598 30.817L36.7647 30.816C36.9184 30.7836 37.0816 30.7836 37.2353 30.816L37.2353 30.816L37.2402 30.817C37.3171 30.8323 37.387 30.8553 37.4619 30.8886L37.484 30.8984L37.5069 30.906C37.552 30.9211 37.6116 30.9511 37.6861 30.9967C37.7745 31.0631 37.834 31.1095 37.8831 31.1586C38.1171 31.3925 38.25 31.7091 38.25 32.0417C38.25 32.3742 38.1171 32.6908 37.8831 32.9248C37.834 32.9739 37.7745 33.0203 37.686 33.0867C37.6191 33.1278 37.5491 33.1662 37.4824 33.1972C37.3867 33.2289 37.3156 33.2513 37.2402 33.2664L37.2402 33.2663L37.2298 33.2686C37.165 33.283 37.0851 33.2917 37 33.2917C36.9149 33.2917 36.835 33.283 36.7702 33.2686L36.7702 33.2685Z" fill="white" stroke="white"/>
<path d="M37 38.4584C36.8833 38.4584 36.7667 38.4467 36.6617 38.4234C36.545 38.4 36.44 38.365 36.335 38.33C36.23 38.2834 36.125 38.225 36.0316 38.1667C35.9383 38.0967 35.845 38.0267 35.7633 37.945C35.6817 37.8634 35.6117 37.7817 35.5417 37.6767C35.4833 37.5834 35.425 37.4784 35.3783 37.3734C35.3433 37.2684 35.3084 37.1634 35.285 37.0467C35.2617 36.9417 35.25 36.825 35.25 36.7084C35.25 36.2417 35.4367 35.7984 35.7633 35.4717C35.845 35.39 35.9383 35.32 36.0316 35.25C36.125 35.1917 36.23 35.1334 36.335 35.0867C36.44 35.0517 36.545 35.0167 36.6617 34.9934C37.2217 34.8767 37.8283 35.0634 38.2367 35.4717C38.5633 35.7984 38.75 36.2417 38.75 36.7084C38.75 36.825 38.7383 36.9417 38.715 37.0467C38.6916 37.1634 38.6567 37.2684 38.61 37.3734C38.575 37.4784 38.5167 37.5834 38.4583 37.6767C38.3883 37.7817 38.3183 37.8634 38.2367 37.945C38.155 38.0267 38.0617 38.0967 37.9684 38.1667C37.875 38.225 37.77 38.2834 37.665 38.33C37.56 38.365 37.455 38.4 37.3383 38.4234C37.2333 38.4467 37.1167 38.4584 37 38.4584Z" fill="white"/>
<path d="M36.9999 42.5417C36.6966 42.5417 36.3932 42.4133 36.1716 42.2033C35.9616 41.9817 35.8333 41.6783 35.8333 41.375C35.8333 41.0717 35.9616 40.7683 36.1716 40.5466C36.4399 40.2783 36.8483 40.1617 37.2216 40.2317C37.3033 40.2433 37.3733 40.2667 37.4433 40.3017C37.5133 40.325 37.5832 40.36 37.6416 40.4066C37.7116 40.4533 37.7699 40.5 37.8283 40.5466C38.0383 40.7683 38.1666 41.0717 38.1666 41.375C38.1666 41.6783 38.0383 41.9817 37.8283 42.2033C37.7699 42.25 37.7116 42.2967 37.6416 42.3433C37.5832 42.39 37.5133 42.425 37.4433 42.4483C37.3733 42.4833 37.3033 42.5066 37.2216 42.5183C37.1516 42.53 37.0699 42.5417 36.9999 42.5417Z" fill="white"/>
<path d="M37 46.3333C36.8833 46.3333 36.7667 46.31 36.6617 46.2633C36.5567 46.2167 36.4633 46.1583 36.3816 46.0766C36.3 45.995 36.23 45.9016 36.195 45.7966C36.1483 45.6916 36.125 45.575 36.125 45.4583C36.125 45.225 36.2183 45.0033 36.3816 44.84C36.4633 44.7583 36.5567 44.7 36.6617 44.6533C36.8834 44.56 37.1166 44.56 37.3383 44.6533C37.4433 44.7 37.5367 44.7583 37.6184 44.84C37.7 44.9217 37.7583 45.015 37.805 45.12C37.8517 45.225 37.875 45.3416 37.875 45.4583C37.875 45.575 37.8517 45.6916 37.805 45.7966C37.7583 45.9016 37.7 45.995 37.6184 46.0766C37.5367 46.1583 37.4433 46.2167 37.3383 46.2633C37.2216 46.31 37.1167 46.3333 37 46.3333Z" fill="white"/>
<path d="M37.0001 48.7483C36.8484 48.7483 36.6968 48.69 36.5918 48.5733C36.4751 48.4683 36.4167 48.3167 36.4167 48.165C36.4167 48.0133 36.4751 47.8616 36.5918 47.7566C36.8018 47.535 37.1984 47.535 37.4084 47.7566C37.5251 47.8616 37.5834 48.0133 37.5834 48.165C37.5834 48.3167 37.5251 48.4683 37.4084 48.5733C37.3034 48.69 37.1517 48.7483 37.0001 48.7483Z" fill="white"/>
<path d="M27.0833 33.7917C26.6166 33.7917 26.1733 33.605 25.8466 33.2783C25.5199 32.9517 25.3333 32.5083 25.3333 32.0417C25.3333 31.5867 25.5199 31.1317 25.8466 30.805C26.4883 30.1517 27.6666 30.1517 28.3199 30.805C28.6466 31.1317 28.8333 31.5867 28.8333 32.0417C28.8333 32.5083 28.6466 32.9517 28.3199 33.2783C28.2382 33.36 28.1449 33.43 28.0516 33.5C27.9583 33.5583 27.8533 33.6167 27.7483 33.6517C27.6433 33.6983 27.5382 33.7333 27.4216 33.7567C27.3166 33.78 27.1999 33.7917 27.0833 33.7917Z" fill="white"/>
<path d="M46.9167 33.7917C46.4617 33.7917 46.0068 33.605 45.6801 33.2784C45.3534 32.9517 45.1667 32.4967 45.1667 32.0417C45.1667 31.925 45.1784 31.8084 45.2018 31.7034C45.2251 31.5867 45.2601 31.4817 45.2951 31.3767C45.3417 31.2717 45.4001 31.1667 45.4584 31.0734C45.5284 30.98 45.5984 30.8867 45.6801 30.805C45.7618 30.7234 45.8551 30.6534 45.9484 30.5834C46.0417 30.525 46.1467 30.4667 46.2517 30.4317C46.3567 30.385 46.4618 30.35 46.5784 30.3267C46.8001 30.28 47.0334 30.28 47.2551 30.3267C47.3717 30.35 47.4768 30.385 47.5818 30.4317C47.6868 30.4667 47.7918 30.525 47.8851 30.5834C47.9784 30.6534 48.0717 30.7234 48.1534 30.805C48.2351 30.8867 48.3051 30.98 48.3751 31.0734C48.4334 31.1667 48.4918 31.2717 48.5268 31.3767C48.5734 31.4817 48.6084 31.5867 48.6317 31.7034C48.655 31.8084 48.6667 31.925 48.6667 32.0417C48.6667 32.5084 48.4801 32.9517 48.1534 33.2784C48.0717 33.36 47.9784 33.43 47.8851 33.5C47.7918 33.5584 47.6868 33.6167 47.5818 33.6634C47.4768 33.6984 47.3717 33.7334 47.2551 33.7567C47.1384 33.78 47.0334 33.7917 46.9167 33.7917Z" fill="white"/>
<path d="M46.9167 37.875C46.8467 37.875 46.765 37.8633 46.695 37.8517C46.6133 37.84 46.5433 37.8167 46.4733 37.7817C46.4033 37.7583 46.3333 37.7233 46.2633 37.6767C46.205 37.6417 46.1466 37.5833 46.0883 37.5367C46.0416 37.4783 45.9833 37.42 45.9483 37.3617C45.9016 37.2917 45.8667 37.2217 45.8434 37.1517C45.8084 37.0817 45.785 37.0117 45.7734 36.9417C45.7617 36.86 45.75 36.79 45.75 36.7083C45.75 36.405 45.8783 36.1017 46.0883 35.88C46.1466 35.8333 46.205 35.7867 46.2633 35.74C46.3333 35.6933 46.4033 35.6583 46.4733 35.635C46.5433 35.6 46.6133 35.5767 46.695 35.565C46.835 35.53 46.9867 35.53 47.1383 35.565C47.22 35.5767 47.29 35.6 47.36 35.635C47.43 35.6583 47.5 35.6933 47.5583 35.74C47.6283 35.7867 47.6867 35.8333 47.745 35.88C47.955 36.1017 48.0833 36.405 48.0833 36.7083C48.0833 36.79 48.0716 36.86 48.06 36.9417C48.0483 37.0117 48.025 37.0817 47.99 37.1517C47.9666 37.2217 47.9317 37.2917 47.885 37.3617C47.8384 37.42 47.7917 37.4783 47.745 37.5367C47.6867 37.5833 47.6283 37.6417 47.5583 37.6767C47.5 37.7233 47.43 37.7583 47.36 37.7817C47.29 37.8167 47.22 37.84 47.1383 37.8517C47.0683 37.8633 46.9867 37.875 46.9167 37.875Z" fill="white"/>
<path d="M27.0834 37.875C26.7801 37.875 26.4767 37.7467 26.2551 37.5367C26.0451 37.315 25.9167 37.0117 25.9167 36.7083C25.9167 36.405 26.0451 36.1017 26.2551 35.88C26.5817 35.5533 27.0951 35.4483 27.5268 35.635C27.6784 35.6933 27.7951 35.775 27.9118 35.88C28.1218 36.1017 28.2501 36.405 28.2501 36.7083C28.2501 37.0117 28.1218 37.315 27.9118 37.5367C27.6901 37.7467 27.3867 37.875 27.0834 37.875Z" fill="white"/>
<path d="M46.9167 41.0834C46.6834 41.0834 46.4617 40.99 46.2984 40.8267C46.135 40.6634 46.0417 40.4417 46.0417 40.2084C46.0417 40.0917 46.0651 39.9867 46.1117 39.87C46.1584 39.765 46.2167 39.6717 46.2984 39.59C46.5434 39.345 46.9284 39.2634 47.2551 39.4034C47.3601 39.45 47.4534 39.5084 47.5351 39.59C47.6168 39.6717 47.6751 39.765 47.7218 39.87C47.7684 39.9867 47.7917 40.0917 47.7917 40.2084C47.7917 40.4417 47.6984 40.6634 47.5351 40.8267C47.4534 40.9084 47.3601 40.9667 47.2551 41.0134C47.1384 41.06 47.0334 41.0834 46.9167 41.0834Z" fill="white"/>
<path d="M27.0833 41.0833C26.8499 41.0833 26.6282 40.99 26.4649 40.8266C26.3832 40.745 26.3132 40.6516 26.2782 40.5466C26.2316 40.4416 26.2083 40.325 26.2083 40.2083C26.2083 40.0916 26.2316 39.9866 26.2782 39.87C26.3132 39.765 26.3832 39.6716 26.4649 39.59C26.7799 39.2633 27.375 39.2633 27.7016 39.59C27.7833 39.6716 27.8416 39.765 27.8883 39.87C27.9349 39.9866 27.9583 40.0916 27.9583 40.2083C27.9583 40.325 27.9349 40.4416 27.8883 40.5466C27.8416 40.6516 27.7833 40.745 27.7016 40.8266C27.5383 40.99 27.3166 41.0833 27.0833 41.0833Z" fill="white"/>
<path d="M46.9166 44C46.8349 44 46.7649 43.9884 46.6949 43.9534C46.6249 43.93 46.5549 43.8834 46.5083 43.825C46.3916 43.72 46.3333 43.5684 46.3333 43.4167C46.3333 43.265 46.3916 43.1134 46.5083 43.0084C46.7183 42.7867 47.1149 42.7867 47.3249 43.0084C47.4416 43.1134 47.4999 43.265 47.4999 43.4167C47.4999 43.5684 47.4416 43.72 47.3249 43.825C47.2199 43.9417 47.0683 44 46.9166 44Z" fill="white"/>
<path d="M27.0833 44C26.9317 44 26.78 43.9417 26.675 43.825C26.5584 43.72 26.5 43.5684 26.5 43.4167C26.5 43.265 26.5584 43.1134 26.675 43.0084C26.885 42.7867 27.2816 42.7867 27.4916 43.0084C27.6083 43.1134 27.6667 43.265 27.6667 43.4167C27.6667 43.5684 27.6083 43.72 27.4916 43.825C27.3866 43.9417 27.235 44 27.0833 44Z" fill="white"/>
<path d="M32.0417 31.1667C31.9251 31.1667 31.8084 31.155 31.7034 31.1317C31.5868 31.1083 31.4817 31.0733 31.3767 31.0267C31.2601 30.9917 31.1667 30.9333 31.0734 30.875C30.9684 30.805 30.8868 30.735 30.8051 30.6533C30.4784 30.3267 30.2917 29.8717 30.2917 29.4167C30.2917 28.9617 30.4784 28.5067 30.8051 28.18C31.4584 27.5267 32.6251 27.5267 33.2784 28.18C33.6051 28.5067 33.7917 28.95 33.7917 29.4167C33.7917 29.8833 33.6051 30.3267 33.2784 30.6533C33.1967 30.735 33.1034 30.805 33.0101 30.875C32.9168 30.9333 32.8118 30.9917 32.7068 31.0267C32.6018 31.0733 32.4967 31.1083 32.3801 31.1317C32.2751 31.155 32.1584 31.1667 32.0417 31.1667Z" fill="white"/>
<path d="M41.9583 31.1667C41.8416 31.1667 41.7249 31.155 41.6199 31.1317C41.5033 31.1084 41.3982 31.0734 41.2932 31.0267C41.1882 30.9917 41.0832 30.9334 40.9899 30.875C40.8966 30.805 40.8033 30.735 40.7216 30.6534C40.6399 30.5717 40.5699 30.4784 40.4999 30.385C40.4416 30.2917 40.3832 30.1867 40.3366 30.0817C40.3016 29.9767 40.2666 29.8717 40.2433 29.755C40.22 29.65 40.2083 29.5334 40.2083 29.4167C40.2083 28.9617 40.3949 28.5067 40.7216 28.18C40.8033 28.0984 40.8966 28.0284 40.9899 27.9584C41.0832 27.9 41.1882 27.8417 41.2932 27.8067C41.3982 27.76 41.5033 27.725 41.6199 27.7017C41.8416 27.655 42.0749 27.655 42.2966 27.7017C42.4132 27.725 42.5183 27.76 42.6233 27.8067C42.7283 27.8417 42.8333 27.9 42.9266 27.9584C43.0199 28.0284 43.1132 28.0984 43.1949 28.18C43.5216 28.5067 43.7083 28.9617 43.7083 29.4167C43.7083 29.5334 43.6966 29.65 43.6732 29.755C43.6499 29.8717 43.6149 29.9767 43.5799 30.0817C43.5333 30.1867 43.4749 30.2917 43.4166 30.385C43.3466 30.4784 43.2766 30.5717 43.1949 30.6534C43.1132 30.735 43.0199 30.805 42.9266 30.875C42.8333 30.9334 42.7283 30.9917 42.6233 31.0267C42.5183 31.0734 42.4132 31.1084 42.2966 31.1317C42.1916 31.155 42.0749 31.1667 41.9583 31.1667Z" fill="white"/>
<path d="M32.0417 36.125C31.9251 36.125 31.8084 36.1133 31.7034 36.09C31.5868 36.0666 31.4817 36.0316 31.3767 35.9966C31.2717 35.95 31.1667 35.8916 31.0734 35.8333C30.9684 35.7633 30.8868 35.6933 30.8051 35.6116C30.4784 35.285 30.2917 34.83 30.2917 34.375C30.2917 33.9083 30.4784 33.465 30.8051 33.1383C31.4584 32.485 32.6251 32.485 33.2784 33.1383C33.6051 33.465 33.7917 33.9083 33.7917 34.375C33.7917 34.8416 33.6051 35.285 33.2784 35.6116C32.9517 35.9383 32.4967 36.125 32.0417 36.125Z" fill="white"/>
<path d="M41.9583 36.125C41.8416 36.125 41.7249 36.1133 41.6199 36.09C41.5033 36.0667 41.3982 36.0317 41.2932 35.985C41.1882 35.95 41.0832 35.8917 40.9899 35.8333C40.8966 35.7633 40.8033 35.6933 40.7216 35.6117C40.6399 35.53 40.5699 35.4367 40.4999 35.3433C40.4416 35.25 40.3832 35.145 40.3366 35.04C40.3016 34.935 40.2666 34.83 40.2433 34.7133C40.22 34.6083 40.2083 34.4917 40.2083 34.375C40.2083 33.92 40.3949 33.465 40.7216 33.1383C40.8033 33.0567 40.8966 32.9867 40.9899 32.9167C41.0832 32.8583 41.1882 32.8 41.2932 32.765C41.3982 32.7183 41.5033 32.6833 41.6199 32.66C41.8416 32.6133 42.0749 32.6133 42.2966 32.66C42.4132 32.6833 42.5183 32.7183 42.6233 32.765C42.7283 32.8 42.8333 32.8583 42.9266 32.9167C43.0199 32.9867 43.1132 33.0567 43.1949 33.1383C43.5216 33.465 43.7083 33.92 43.7083 34.375C43.7083 34.4917 43.6966 34.6083 43.6732 34.7133C43.6499 34.83 43.6149 34.935 43.5799 35.04C43.5333 35.145 43.4749 35.25 43.4166 35.3433C43.3466 35.4367 43.2766 35.53 43.1949 35.6117C43.1132 35.6933 43.0199 35.7633 42.9266 35.8333C42.8333 35.8917 42.7283 35.95 42.6233 35.985C42.5183 36.0317 42.4132 36.0667 42.2966 36.09C42.1916 36.1133 42.0749 36.125 41.9583 36.125Z" fill="white"/>
<path d="M32.0417 40.2083C31.89 40.2083 31.7383 40.1733 31.5983 40.115C31.4467 40.0567 31.3183 39.975 31.2133 39.87C31.1083 39.7534 31.0267 39.625 30.9684 39.485C30.91 39.345 30.875 39.1933 30.875 39.0417C30.875 38.7383 31.0033 38.435 31.2133 38.2133C31.645 37.7817 32.4384 37.7817 32.87 38.2133C33.08 38.435 33.2083 38.7383 33.2083 39.0417C33.2083 39.1933 33.1733 39.345 33.115 39.485C33.0566 39.625 32.975 39.7534 32.87 39.87C32.6484 40.08 32.345 40.2083 32.0417 40.2083Z" fill="white"/>
<path d="M41.9584 40.2083C41.6551 40.2083 41.3517 40.08 41.1301 39.87C40.9201 39.6484 40.7917 39.345 40.7917 39.0417C40.7917 38.7383 40.9201 38.435 41.1301 38.2133C41.5617 37.7817 42.3434 37.7817 42.7868 38.2133C42.9968 38.435 43.1251 38.7383 43.1251 39.0417C43.1251 39.1233 43.1134 39.1933 43.1017 39.275C43.0901 39.345 43.0667 39.415 43.0317 39.485C43.0084 39.555 42.9734 39.625 42.9268 39.6833C42.8801 39.7533 42.8334 39.8117 42.7868 39.87C42.5651 40.08 42.2617 40.2083 41.9584 40.2083Z" fill="white"/>
<path d="M32.0417 43.7083C31.8084 43.7083 31.5867 43.615 31.4234 43.4516C31.3417 43.37 31.2834 43.2766 31.2367 43.1716C31.1901 43.0666 31.1667 42.95 31.1667 42.8333C31.1667 42.7166 31.1901 42.6117 31.2367 42.495C31.2834 42.39 31.3417 42.2967 31.4234 42.215C31.505 42.1333 31.5984 42.075 31.7034 42.0283C31.9134 41.935 32.1584 41.935 32.3801 42.0283C32.4851 42.075 32.5784 42.1333 32.6601 42.215C32.8234 42.3783 32.9167 42.6 32.9167 42.8333C32.9167 42.95 32.8934 43.0666 32.8468 43.1716C32.8001 43.2766 32.7418 43.37 32.6601 43.4516C32.4968 43.615 32.2751 43.7083 32.0417 43.7083Z" fill="white"/>
<path d="M41.9583 43.7083C41.8416 43.7083 41.7249 43.685 41.6199 43.6383C41.5149 43.5917 41.4216 43.5333 41.3399 43.4516C41.2582 43.37 41.1882 43.2766 41.1532 43.1716C41.1066 43.0666 41.0833 42.95 41.0833 42.8333C41.0833 42.7166 41.1066 42.6 41.1532 42.495C41.1999 42.39 41.2582 42.2967 41.3399 42.215C41.4216 42.1333 41.5149 42.075 41.6199 42.0283C41.8299 41.935 42.0749 41.935 42.2966 42.0283C42.4016 42.075 42.495 42.1333 42.5766 42.215C42.6583 42.2967 42.7166 42.39 42.7633 42.495C42.8099 42.6 42.8333 42.7166 42.8333 42.8333C42.8333 42.95 42.8099 43.0666 42.7633 43.1716C42.7166 43.2766 42.6583 43.37 42.5766 43.4516C42.4133 43.615 42.1916 43.7083 41.9583 43.7083Z" fill="white"/>
<path d="M32.0416 46.3333C31.8899 46.3333 31.7383 46.275 31.6333 46.1583C31.5166 46.0533 31.4583 45.9017 31.4583 45.75C31.4583 45.5983 31.5166 45.4467 31.6333 45.3417C31.8433 45.12 32.2399 45.12 32.4499 45.3417C32.5666 45.4467 32.6249 45.5983 32.6249 45.75C32.6249 45.9017 32.5666 46.0533 32.4499 46.1583C32.3449 46.275 32.1933 46.3333 32.0416 46.3333Z" fill="white"/>
<path d="M41.9583 46.3333C41.8767 46.3333 41.8067 46.3217 41.7367 46.2867C41.6667 46.2633 41.5967 46.2167 41.55 46.1583C41.4917 46.1117 41.445 46.0417 41.4216 45.9717C41.3866 45.9017 41.375 45.8317 41.375 45.75C41.375 45.5983 41.4334 45.4467 41.55 45.3417C41.76 45.12 42.1566 45.12 42.3666 45.3417C42.4833 45.4467 42.5417 45.5983 42.5417 45.75C42.5417 45.8317 42.53 45.9017 42.495 45.9717C42.4717 46.0417 42.425 46.1117 42.3666 46.1583C42.2616 46.275 42.11 46.3333 41.9583 46.3333Z" fill="white"/>
</svg>
