<svg width="74" height="74" viewBox="0 0 74 74" fill="none" xmlns="http://www.w3.org/2000/svg">
<path d="M17.7422 10.7728C19.3321 7.81937 22.2704 6 25.4503 6L48.5497 6C51.7296 6 54.6679 7.81937 56.2578 10.7728L67.8076 32.2272C69.3975 35.1806 69.3975 38.8194 67.8076 41.7728L56.2578 63.2272C54.6679 66.1806 51.7296 68 48.5497 68H25.4503C22.2704 68 19.3321 66.1806 17.7422 63.2272L6.19244 41.7728C4.60252 38.8194 4.60252 35.1806 6.19244 32.2272L17.7422 10.7728Z" fill="#259446"/>
<path d="M48.1549 32.1103V32.1117V41.8884C48.1549 43.9123 47.5536 45.4676 46.5047 46.5165C45.4558 47.5654 43.9005 48.1667 41.8766 48.1667H32.1116C30.0877 48.1667 28.5325 47.5654 27.4837 46.5152C26.4348 45.4651 25.8333 43.9068 25.8333 41.8767V32.1117C25.8333 30.0878 26.4346 28.5325 27.4835 27.4836C28.5323 26.4347 30.0877 25.8334 32.1116 25.8334H41.8883C43.9122 25.8334 45.4674 26.4348 46.5147 27.4834C47.5619 28.5319 48.1605 30.0868 48.1549 32.1103ZM28.625 36.8632L28.6249 36.8632V36.8717C28.6249 37.6087 29.2166 38.2584 29.9883 38.2584H29.9999C30.7439 38.2584 31.3678 37.6626 31.3864 36.9192L31.3865 36.9192L31.3865 36.914C31.408 35.4445 31.9863 34.0641 33.0251 33.0253C34.0869 31.9635 35.5 31.375 36.9999 31.375C38.1246 31.375 39.2005 31.7059 40.116 32.3191C39.5224 32.471 39.0783 33.0134 39.0783 33.6517C39.0783 34.4062 39.6988 35.0267 40.4533 35.0267H43.5449C44.2994 35.0267 44.9199 34.4062 44.9199 33.6517V30.56C44.9199 29.8056 44.2994 29.185 43.5449 29.185C42.8383 29.185 42.2492 29.7293 42.1773 30.4182C40.7085 29.2533 38.8977 28.625 36.9999 28.625C34.7677 28.625 32.6571 29.4941 31.0697 31.0815C29.5306 32.6206 28.6622 34.6813 28.625 36.8632ZM36.9999 45.375C39.2332 45.375 41.3431 44.4936 42.9178 42.9193C44.4947 41.3544 45.3633 39.2547 45.3633 37.0117C45.3633 36.2572 44.7427 35.6367 43.9883 35.6367C43.2338 35.6367 42.6133 36.2572 42.6133 37.0117C42.6133 38.5113 42.025 39.9128 40.9747 40.9632C39.9129 42.0249 38.4998 42.6134 36.9999 42.6134C35.8752 42.6134 34.7994 42.2825 33.8838 41.6693C34.4774 41.5174 34.9216 40.975 34.9216 40.3367C34.9216 39.5822 34.3011 38.9617 33.5466 38.9617H30.4549C29.7004 38.9617 29.0799 39.5822 29.0799 40.3367V43.4284C29.0799 44.1828 29.7004 44.8034 30.4549 44.8034C31.1579 44.8034 31.7445 44.2647 31.8214 43.5809C33.2904 44.7465 35.1016 45.375 36.9999 45.375Z" fill="white" stroke="white"/>
</svg>
