<svg width="74" height="74" viewBox="0 0 74 74" fill="none" xmlns="http://www.w3.org/2000/svg">
<path d="M17.7422 10.7728C19.3321 7.81937 22.2704 6 25.4503 6L48.5497 6C51.7296 6 54.6679 7.81937 56.2578 10.7728L67.8076 32.2272C69.3975 35.1806 69.3975 38.8194 67.8076 41.7728L56.2578 63.2272C54.6679 66.1806 51.7296 68 48.5497 68H25.4503C22.2704 68 19.3321 66.1806 17.7422 63.2272L6.19244 41.7728C4.60252 38.8194 4.60252 35.1806 6.19244 32.2272L17.7422 10.7728Z" fill="#2563EB"/>
<g clip-path="url(#clip0_7139_2908)">
<path d="M31.9251 47.395C31.8901 47.395 31.8434 47.4184 31.8084 47.4184C29.5451 46.2984 27.7017 44.4434 26.5701 42.18C26.5701 42.145 26.5934 42.0984 26.5934 42.0634C28.0167 42.4834 29.4867 42.7984 30.9451 43.0434C31.2017 44.5134 31.5051 45.9717 31.9251 47.395Z" fill="white"/>
<path d="M43.5003 43.4765C44.5102 43.3 45.5112 43.0891 46.5029 42.8322C45.5833 44.3254 44.3139 45.5868 42.814 46.511C43.0862 45.5077 43.321 44.496 43.5003 43.4765Z" fill="white" stroke="white"/>
<path d="M47.5232 31.995C46.0532 31.5517 44.5715 31.19 43.0665 30.9334C42.8215 29.4284 42.4599 27.935 42.0049 26.4767C44.4199 27.6317 46.3682 29.58 47.5232 31.995Z" fill="white"/>
<path d="M31.9249 26.605C31.5049 28.0283 31.2016 29.475 30.9566 30.945C29.4516 31.1783 27.9582 31.5517 26.4766 31.995C27.6082 29.65 29.4866 27.725 31.8082 26.57C31.8432 26.57 31.8899 26.605 31.9249 26.605Z" fill="white"/>
<path d="M41.0716 30.6883C38.3649 30.385 35.6349 30.385 32.9282 30.6883C33.2199 29.09 33.5932 27.4916 34.1182 25.9516C34.1416 25.8583 34.1299 25.7883 34.1416 25.695C35.0632 25.4733 36.0082 25.3333 36.9999 25.3333C37.9799 25.3333 38.9366 25.4733 39.8466 25.695C39.8582 25.7883 39.8582 25.8583 39.8816 25.9516C40.4066 27.5033 40.7799 29.09 41.0716 30.6883Z" fill="white"/>
<path d="M30.6883 41.0717C29.0783 40.78 27.4916 40.4067 25.9516 39.8817C25.8583 39.8583 25.7883 39.87 25.6949 39.8583C25.4733 38.9367 25.3333 37.9917 25.3333 37C25.3333 36.02 25.4733 35.0633 25.6949 34.1533C25.7883 34.1417 25.8583 34.1417 25.9516 34.1183C27.5033 33.605 29.0783 33.22 30.6883 32.9283C30.3966 35.635 30.3966 38.365 30.6883 41.0717Z" fill="white"/>
<path d="M48.6668 37C48.6668 37.9917 48.5268 38.9367 48.3051 39.8583C48.2118 39.87 48.1418 39.8583 48.0484 39.8817C46.4968 40.395 44.9101 40.78 43.3118 41.0717C43.6151 38.365 43.6151 35.635 43.3118 32.9283C44.9101 33.22 46.5084 33.5933 48.0484 34.1183C48.1418 34.1417 48.2118 34.1533 48.3051 34.1533C48.5268 35.075 48.6668 36.02 48.6668 37Z" fill="white"/>
<path d="M41.0716 43.3116C40.7799 44.9216 40.4066 46.5083 39.8816 48.0483C39.8582 48.1416 39.8582 48.2116 39.8466 48.305C38.9366 48.5266 37.9799 48.6666 36.9999 48.6666C36.0082 48.6666 35.0632 48.5266 34.1416 48.305C34.1299 48.2116 34.1416 48.1416 34.1182 48.0483C33.6049 46.4966 33.2199 44.9216 32.9282 43.3116C34.2816 43.4633 35.6349 43.5683 36.9999 43.5683C38.3649 43.5683 39.7299 43.4633 41.0716 43.3116Z" fill="white"/>
<path d="M41.3905 41.3905C38.4725 41.7587 35.5273 41.7587 32.6094 41.3905C32.2412 38.4726 32.2412 35.5274 32.6094 32.6094C35.5273 32.2413 38.4725 32.2413 41.3905 32.6094C41.7586 35.5274 41.7586 38.4726 41.3905 41.3905Z" fill="white"/>
</g>
<defs>
<clipPath id="clip0_7139_2908">
<rect width="28" height="28" fill="white" transform="translate(23 23)"/>
</clipPath>
</defs>
</svg>
