<svg width="74" height="74" viewBox="0 0 74 74" fill="none" xmlns="http://www.w3.org/2000/svg">
<path d="M17.7422 10.7728C19.3321 7.81937 22.2704 6 25.4503 6L48.5497 6C51.7296 6 54.6679 7.81937 56.2578 10.7728L67.8076 32.2272C69.3975 35.1806 69.3975 38.8194 67.8076 41.7728L56.2578 63.2272C54.6679 66.1806 51.7296 68 48.5497 68H25.4503C22.2704 68 19.3321 66.1806 17.7422 63.2272L6.19244 41.7728C4.60252 38.8194 4.60252 35.1806 6.19244 32.2272L17.7422 10.7728Z" fill="#862AF3"/>
<path d="M48.6666 45.1667V48.6667H25.3333V45.1667C25.3333 44.525 25.8583 44 26.4999 44H47.4999C48.1416 44 48.6666 44.525 48.6666 45.1667Z" fill="white" stroke="white" stroke-width="1.5" stroke-miterlimit="10" stroke-linecap="round" stroke-linejoin="round"/>
<path d="M31.1666 35.8334H28.8333V44H31.1666V35.8334Z" fill="white"/>
<path d="M35.8333 35.8334H33.5V44H35.8333V35.8334Z" fill="white"/>
<path d="M40.5001 35.8334H38.1667V44H40.5001V35.8334Z" fill="white"/>
<path d="M45.1666 35.8334H42.8333V44H45.1666V35.8334Z" fill="white"/>
<path d="M49.8334 49.5416H24.1667C23.6884 49.5416 23.2917 49.145 23.2917 48.6666C23.2917 48.1883 23.6884 47.7916 24.1667 47.7916H49.8334C50.3118 47.7916 50.7084 48.1883 50.7084 48.6666C50.7084 49.145 50.3118 49.5416 49.8334 49.5416Z" fill="white"/>
<path d="M47.9316 29.7084L37.4316 25.5084C37.1983 25.415 36.8016 25.415 36.5683 25.5084L26.0683 29.7084C25.6599 29.8717 25.3333 30.35 25.3333 30.7934V34.6667C25.3333 35.3084 25.8583 35.8334 26.4999 35.8334H47.4999C48.1416 35.8334 48.6666 35.3084 48.6666 34.6667V30.7934C48.6666 30.35 48.3399 29.8717 47.9316 29.7084ZM36.9999 32.9167C36.0316 32.9167 35.2499 32.135 35.2499 31.1667C35.2499 30.1984 36.0316 29.4167 36.9999 29.4167C37.9683 29.4167 38.7499 30.1984 38.7499 31.1667C38.7499 32.135 37.9683 32.9167 36.9999 32.9167Z" fill="white"/>
</svg>
