<svg width="60" height="60" viewBox="0 0 60 60" fill="none" xmlns="http://www.w3.org/2000/svg">
<path d="M0 30C0 13.4315 13.4315 0 30 0C46.5685 0 60 13.4315 60 30C60 46.5685 46.5685 60 30 60C13.4315 60 0 46.5685 0 30Z" fill="#2563EB"/>
<path d="M29.05 32.95L27.2 34.8C26.81 35.19 26.19 35.19 25.79 34.81C25.68 34.7 25.57 34.6 25.46 34.49C24.43 33.45 23.5 32.36 22.67 31.22C21.85 30.08 21.19 28.94 20.71 27.81C20.24 26.67 20 25.58 20 24.54C20 23.86 20.12 23.21 20.36 22.61C20.6 22 20.98 21.44 21.51 20.94C22.15 20.31 22.85 20 23.59 20C23.87 20 24.15 20.06 24.4 20.18C24.66 20.3 24.89 20.48 25.07 20.74L27.39 24.01C27.57 24.26 27.7 24.49 27.79 24.71C27.88 24.92 27.93 25.13 27.93 25.32C27.93 25.56 27.86 25.8 27.72 26.03C27.59 26.26 27.4 26.5 27.16 26.74L26.4 27.53C26.29 27.64 26.24 27.77 26.24 27.93C26.24 28.01 26.25 28.08 26.27 28.16C26.3 28.24 26.33 28.3 26.35 28.36C26.53 28.69 26.84 29.12 27.28 29.64C27.73 30.16 28.21 30.69 28.73 31.22C28.83 31.32 28.94 31.42 29.04 31.52C29.44 31.91 29.45 32.55 29.05 32.95Z" fill="white"/>
<path d="M39.9701 36.33C39.9701 36.61 39.9201 36.9 39.8201 37.18C39.7901 37.26 39.7601 37.34 39.7201 37.42C39.5501 37.78 39.3301 38.12 39.0401 38.44C38.5501 38.98 38.0101 39.37 37.4001 39.62C37.3901 39.62 37.3801 39.63 37.3701 39.63C36.7801 39.87 36.1401 40 35.4501 40C34.4301 40 33.3401 39.76 32.1901 39.27C31.0401 38.78 29.8901 38.12 28.7501 37.29C28.3601 37 27.9701 36.71 27.6001 36.4L30.8701 33.13C31.1501 33.34 31.4001 33.5 31.6101 33.61C31.6601 33.63 31.7201 33.66 31.7901 33.69C31.8701 33.72 31.9501 33.73 32.0401 33.73C32.2101 33.73 32.3401 33.67 32.4501 33.56L33.2101 32.81C33.4601 32.56 33.7001 32.37 33.9301 32.25C34.1601 32.11 34.3901 32.04 34.6401 32.04C34.8301 32.04 35.0301 32.08 35.2501 32.17C35.4701 32.26 35.7001 32.39 35.9501 32.56L39.2601 34.91C39.5201 35.09 39.7001 35.3 39.8101 35.55C39.9101 35.8 39.9701 36.05 39.9701 36.33Z" fill="white"/>
</svg>
