<svg width="24" height="24" viewBox="0 0 24 24" fill="none" xmlns="http://www.w3.org/2000/svg">
<path d="M12.6778 19.957C12.9525 20.0209 12.9777 20.3807 12.7101 20.4699L11.1301 20.9899C7.1601 22.2699 5.0701 21.1999 3.7801 17.2299L2.5001 13.2799C1.2201 9.30992 2.2801 7.20992 6.2501 5.92992L6.77409 5.75639C7.17696 5.62297 7.56902 6.02703 7.45463 6.43571C7.39793 6.63828 7.34338 6.84968 7.2901 7.06992L6.3101 11.2599C5.2101 15.9699 6.8201 18.5699 11.5301 19.6899L12.6778 19.957Z" fill="#FACC15"/>
<path d="M17.1699 3.20952L15.4999 2.81952C12.1599 2.02952 10.1699 2.67952 8.99994 5.09952C8.69994 5.70952 8.45994 6.44952 8.25994 7.29952L7.27994 11.4895C6.29994 15.6695 7.58994 17.7295 11.7599 18.7195L13.4399 19.1195C14.0199 19.2595 14.5599 19.3495 15.0599 19.3895C18.1799 19.6895 19.8399 18.2295 20.6799 14.6195L21.6599 10.4395C22.6399 6.25952 21.3599 4.18952 17.1699 3.20952ZM15.2899 13.3295C15.1999 13.6695 14.8999 13.8895 14.5599 13.8895C14.4999 13.8895 14.4399 13.8795 14.3699 13.8695L11.4599 13.1295C11.0599 13.0295 10.8199 12.6195 10.9199 12.2195C11.0199 11.8195 11.4299 11.5795 11.8299 11.6795L14.7399 12.4195C15.1499 12.5195 15.3899 12.9295 15.2899 13.3295ZM18.2199 9.94952C18.1299 10.2895 17.8299 10.5095 17.4899 10.5095C17.4299 10.5095 17.3699 10.4995 17.2999 10.4895L12.4499 9.25952C12.0499 9.15952 11.8099 8.74952 11.9099 8.34952C12.0099 7.94952 12.4199 7.70952 12.8199 7.80952L17.6699 9.03952C18.0799 9.12952 18.3199 9.53952 18.2199 9.94952Z" fill="#FACC15"/>
</svg>
