<svg width="24" height="24" viewBox="0 0 24 24" fill="none" xmlns="http://www.w3.org/2000/svg">
<path d="M15.9601 21.3197C15.7701 21.3197 15.5801 21.2497 15.4301 21.0997L13.9101 19.5797C13.6201 19.2897 13.6201 18.8097 13.9101 18.5197C14.2001 18.2297 14.6801 18.2297 14.9701 18.5197L15.9601 19.5097L18.4701 16.9997C18.7601 16.7097 19.2401 16.7097 19.5301 16.9997C19.8201 17.2897 19.8201 17.7697 19.5301 18.0597L16.4901 21.0997C16.3401 21.2497 16.1501 21.3197 15.9601 21.3197Z" fill="#64748B"/>
<path d="M12.1602 11.62C12.1302 11.62 12.1102 11.62 12.0802 11.62C12.0302 11.61 11.9602 11.61 11.9002 11.62C9.00019 11.53 6.8102 9.25 6.8102 6.44C6.8002 5.06 7.34019 3.76 8.32019 2.78C9.30019 1.8 10.6002 1.25 11.9902 1.25C14.8502 1.25 17.1802 3.58 17.1802 6.44C17.1802 9.25 14.9902 11.52 12.1902 11.62C12.1802 11.62 12.1702 11.62 12.1602 11.62ZM11.9902 2.75C11.0002 2.75 10.0802 3.14 9.3802 3.83C8.6902 4.53 8.3102 5.45 8.3102 6.43C8.3102 8.43 9.87019 10.05 11.8602 10.11C11.9202 10.1 12.0502 10.1 12.1802 10.11C14.1502 10.02 15.6802 8.41 15.6802 6.43C15.6802 4.41 14.0202 2.75 11.9902 2.75Z" fill="#64748B"/>
<path d="M11.9902 22.5597C9.95016 22.5597 8.02016 22.0297 6.56016 21.0497C5.17016 20.1197 4.41016 18.8497 4.41016 17.4797C4.41016 16.1097 5.18016 14.8497 6.56016 13.9297C9.55016 11.9297 14.4102 11.9297 17.4002 13.9297C17.7402 14.1597 17.8402 14.6297 17.6102 14.9697C17.3802 15.3197 16.9102 15.4097 16.5702 15.1797C14.0802 13.5197 9.88016 13.5197 7.39016 15.1797C6.43016 15.8197 5.91016 16.6297 5.91016 17.4797C5.91016 18.3297 6.43016 19.1597 7.39016 19.7997C8.60016 20.6097 10.2302 21.0497 11.9802 21.0497C12.3902 21.0497 12.7302 21.3897 12.7302 21.7997C12.7302 22.2097 12.4002 22.5597 11.9902 22.5597Z" fill="#64748B"/>
</svg>
