<svg width="24" height="24" viewBox="0 0 24 24" fill="none" xmlns="http://www.w3.org/2000/svg">
<path d="M17.53 7.77C17.46 7.76 17.39 7.76 17.32 7.77C15.77 7.72 14.54 6.45 14.54 4.89C14.54 3.3 15.83 2 17.43 2C19.02 2 20.32 3.29 20.32 4.89C20.31 6.45 19.08 7.72 17.53 7.77Z" fill="#2563EB"/>
<path d="M20.7901 14.7004C19.6701 15.4504 18.1001 15.7304 16.6501 15.5404C17.0301 14.7204 17.2301 13.8104 17.2401 12.8504C17.2401 11.8504 17.0201 10.9004 16.6001 10.0704C18.0801 9.8704 19.6501 10.1504 20.7801 10.9004C22.3601 11.9404 22.3601 13.6504 20.7901 14.7004Z" fill="#2563EB"/>
<path d="M6.43991 7.77C6.50991 7.76 6.57991 7.76 6.64991 7.77C8.19991 7.72 9.42991 6.45 9.42991 4.89C9.42991 3.29 8.13991 2 6.53991 2C4.94991 2 3.65991 3.29 3.65991 4.89C3.65991 6.45 4.88991 7.72 6.43991 7.77Z" fill="#2563EB"/>
<path d="M6.55012 12.8496C6.55012 13.8196 6.76012 14.7396 7.14012 15.5696C5.73012 15.7196 4.26012 15.4196 3.18012 14.7096C1.60012 13.6596 1.60012 11.9496 3.18012 10.8996C4.25012 10.1796 5.76012 9.88962 7.18012 10.0496C6.77012 10.8896 6.55012 11.8396 6.55012 12.8496Z" fill="#2563EB"/>
<path d="M12.12 15.87C12.04 15.86 11.95 15.86 11.86 15.87C10.02 15.81 8.55005 14.3 8.55005 12.44C8.56005 10.54 10.09 9 12 9C13.9 9 15.44 10.54 15.44 12.44C15.43 14.3 13.97 15.81 12.12 15.87Z" fill="#2563EB"/>
<path d="M8.87005 17.9396C7.36005 18.9496 7.36005 20.6096 8.87005 21.6096C10.59 22.7596 13.41 22.7596 15.13 21.6096C16.64 20.5996 16.64 18.9396 15.13 17.9396C13.42 16.7896 10.6 16.7896 8.87005 17.9396Z" fill="#2563EB"/>
</svg>
