<svg width="20" height="20" viewBox="0 0 20 20" fill="none" xmlns="http://www.w3.org/2000/svg">
<path d="M13.3333 1.66699H6.66667C3.75 1.66699 2.5 3.33366 2.5 5.83366V14.167C2.5 16.667 3.75 18.3337 6.66667 18.3337H13.3333C16.25 18.3337 17.5 16.667 17.5 14.167V5.83366C17.5 3.33366 16.25 1.66699 13.3333 1.66699ZM6.66667 10.2087H10C10.3417 10.2087 10.625 10.492 10.625 10.8337C10.625 11.1753 10.3417 11.4587 10 11.4587H6.66667C6.325 11.4587 6.04167 11.1753 6.04167 10.8337C6.04167 10.492 6.325 10.2087 6.66667 10.2087ZM13.3333 14.792H6.66667C6.325 14.792 6.04167 14.5087 6.04167 14.167C6.04167 13.8253 6.325 13.542 6.66667 13.542H13.3333C13.675 13.542 13.9583 13.8253 13.9583 14.167C13.9583 14.5087 13.675 14.792 13.3333 14.792ZM15.4167 7.70866H13.75C12.4833 7.70866 11.4583 6.68366 11.4583 5.41699V3.75033C11.4583 3.40866 11.7417 3.12533 12.0833 3.12533C12.425 3.12533 12.7083 3.40866 12.7083 3.75033V5.41699C12.7083 5.99199 13.175 6.45866 13.75 6.45866H15.4167C15.7583 6.45866 16.0417 6.74199 16.0417 7.08366C16.0417 7.42533 15.7583 7.70866 15.4167 7.70866Z" fill="#35BB5D"/>
</svg>
