<svg width="20" height="20" viewBox="0 0 20 20" fill="none" xmlns="http://www.w3.org/2000/svg">
<path d="M17.75 6.31706H13.1C12.775 6.31706 12.5167 6.05872 12.5167 5.73372C12.5167 5.40872 12.775 5.15039 13.1 5.15039H17.75C18.075 5.15039 18.3333 5.40872 18.3333 5.73372C18.3333 6.05872 18.075 6.31706 17.75 6.31706Z" fill="#3B82F6"/>
<path d="M5.34999 6.31706H2.24999C1.92499 6.31706 1.66666 6.05872 1.66666 5.73372C1.66666 5.40872 1.92499 5.15039 2.24999 5.15039H5.34999C5.67499 5.15039 5.93332 5.40872 5.93332 5.73372C5.93332 6.05872 5.66666 6.31706 5.34999 6.31706Z" fill="#3B82F6"/>
<path d="M8.44999 9.02474C10.2679 9.02474 11.7417 7.55101 11.7417 5.73307C11.7417 3.91514 10.2679 2.44141 8.44999 2.44141C6.63205 2.44141 5.15833 3.91514 5.15833 5.73307C5.15833 7.55101 6.63205 9.02474 8.44999 9.02474Z" fill="#3B82F6"/>
<path d="M17.75 14.8415H14.65C14.325 14.8415 14.0667 14.5831 14.0667 14.2581C14.0667 13.9331 14.325 13.6748 14.65 13.6748H17.75C18.075 13.6748 18.3333 13.9331 18.3333 14.2581C18.3333 14.5831 18.075 14.8415 17.75 14.8415Z" fill="#3B82F6"/>
<path d="M6.89999 14.8415H2.24999C1.92499 14.8415 1.66666 14.5831 1.66666 14.2581C1.66666 13.9331 1.92499 13.6748 2.24999 13.6748H6.89999C7.22499 13.6748 7.48332 13.9331 7.48332 14.2581C7.48332 14.5831 7.21666 14.8415 6.89999 14.8415Z" fill="#3B82F6"/>
<path d="M11.55 17.5579C13.3679 17.5579 14.8417 16.0842 14.8417 14.2663C14.8417 12.4483 13.3679 10.9746 11.55 10.9746C9.73206 10.9746 8.25833 12.4483 8.25833 14.2663C8.25833 16.0842 9.73206 17.5579 11.55 17.5579Z" fill="#3B82F6"/>
</svg>
