<svg width="24" height="24" viewBox="0 0 24 24" fill="none" xmlns="http://www.w3.org/2000/svg">
<path d="M15.8101 20.1795C15.5501 20.1795 15.2801 20.1695 14.9901 20.1395C14.4701 20.0995 13.8801 19.9995 13.2701 19.8495L11.5901 19.4495C6.98007 18.3595 5.47007 15.9195 6.55007 11.3195L7.53007 7.12953C7.75007 6.17953 8.01007 5.40953 8.33007 4.76953C10.0501 1.21953 13.3401 1.53953 15.6801 2.08953L17.3501 2.47953C19.6901 3.02953 21.1701 3.89953 22.0001 5.22953C22.8201 6.55953 22.9501 8.26953 22.4001 10.6095L21.4201 14.7895C20.5601 18.4495 18.7701 20.1795 15.8101 20.1795ZM13.1201 3.24953C11.4501 3.24953 10.3901 3.93953 9.68007 5.41953C9.42007 5.95953 9.19007 6.62953 8.99007 7.46953L8.01007 11.6595C7.12007 15.4395 8.15007 17.0895 11.9301 17.9895L13.6101 18.3895C14.1501 18.5195 14.6601 18.5995 15.1201 18.6395C17.8401 18.9095 19.1901 17.7195 19.9501 14.4495L20.9301 10.2695C21.3801 8.33953 21.3201 6.98953 20.7201 6.01953C20.1201 5.04953 18.9401 4.38953 17.0001 3.93953L15.3301 3.54953C14.5001 3.34953 13.7601 3.24953 13.1201 3.24953Z" fill="white"/>
<path d="M8.33005 22.2497C5.76005 22.2497 4.12005 20.7097 3.07005 17.4597L1.79005 13.5097C0.370052 9.10968 1.64005 6.62968 6.02005 5.20968L7.60005 4.69968C8.12005 4.53968 8.51005 4.42968 8.86005 4.36968C9.15005 4.30968 9.43005 4.41968 9.60005 4.64968C9.77005 4.87968 9.80005 5.17968 9.68005 5.43968C9.42005 5.96968 9.19005 6.63968 9.00005 7.47968L8.02005 11.6697C7.13005 15.4497 8.16005 17.0997 11.9401 17.9997L13.6201 18.3997C14.1601 18.5297 14.6701 18.6097 15.1301 18.6497C15.4501 18.6797 15.7101 18.8997 15.8001 19.2097C15.8801 19.5197 15.7601 19.8397 15.5001 20.0197C14.8401 20.4697 14.0101 20.8497 12.9601 21.1897L11.3801 21.7097C10.2301 22.0697 9.23005 22.2497 8.33005 22.2497ZM7.78005 6.21968L6.49005 6.63968C2.92005 7.78968 2.07005 9.46968 3.22005 13.0497L4.50005 16.9997C5.66005 20.5697 7.34005 21.4297 10.9101 20.2797L12.4901 19.7597C12.5501 19.7397 12.6001 19.7197 12.6601 19.6997L11.6001 19.4497C6.99005 18.3597 5.48005 15.9197 6.56005 11.3197L7.54005 7.12968C7.61005 6.80968 7.69005 6.49968 7.78005 6.21968Z" fill="white"/>
<path d="M17.4901 10.5098C17.4301 10.5098 17.3701 10.4998 17.3001 10.4898L12.4501 9.25978C12.0501 9.15978 11.8101 8.74978 11.9101 8.34978C12.0101 7.94978 12.4201 7.70978 12.8201 7.80978L17.6701 9.03978C18.0701 9.13978 18.3101 9.54978 18.2101 9.94978C18.1301 10.2798 17.8201 10.5098 17.4901 10.5098Z" fill="white"/>
<path d="M14.5599 13.8899C14.4999 13.8899 14.4399 13.8799 14.3699 13.8699L11.4599 13.1299C11.0599 13.0299 10.8199 12.6199 10.9199 12.2199C11.0199 11.8199 11.4299 11.5799 11.8299 11.6799L14.7399 12.4199C15.1399 12.5199 15.3799 12.9299 15.2799 13.3299C15.1999 13.6699 14.8999 13.8899 14.5599 13.8899Z" fill="white"/>
</svg>
