<svg width="18" height="18" viewBox="0 0 18 18" fill="none" xmlns="http://www.w3.org/2000/svg">
<path d="M15.375 12.5625H13.6875V10.875C13.6875 10.5675 13.4325 10.3125 13.125 10.3125C12.8175 10.3125 12.5625 10.5675 12.5625 10.875V12.5625H10.875C10.5675 12.5625 10.3125 12.8175 10.3125 13.125C10.3125 13.4325 10.5675 13.6875 10.875 13.6875H12.5625V15.375C12.5625 15.6825 12.8175 15.9375 13.125 15.9375C13.4325 15.9375 13.6875 15.6825 13.6875 15.375V13.6875H15.375C15.6825 13.6875 15.9375 13.4325 15.9375 13.125C15.9375 12.8175 15.6825 12.5625 15.375 12.5625Z" fill="white"/>
<path d="M16.5 6.39V2.985C16.5 1.9275 16.02 1.5 14.8275 1.5H11.7975C10.605 1.5 10.125 1.9275 10.125 2.985V6.3825C10.125 7.4475 10.605 7.8675 11.7975 7.8675H14.8275C16.02 7.875 16.5 7.4475 16.5 6.39Z" fill="white"/>
<path d="M7.875 6.39V2.985C7.875 1.9275 7.395 1.5 6.2025 1.5H3.1725C1.98 1.5 1.5 1.9275 1.5 2.985V6.3825C1.5 7.4475 1.98 7.8675 3.1725 7.8675H6.2025C7.395 7.875 7.875 7.4475 7.875 6.39Z" fill="white"/>
<path d="M7.875 14.8275V11.7975C7.875 10.605 7.395 10.125 6.2025 10.125H3.1725C1.98 10.125 1.5 10.605 1.5 11.7975V14.8275C1.5 16.02 1.98 16.5 3.1725 16.5H6.2025C7.395 16.5 7.875 16.02 7.875 14.8275Z" fill="white"/>
</svg>
