<svg width="18" height="18" viewBox="0 0 18 18" fill="none" xmlns="http://www.w3.org/2000/svg">
<path d="M6.75 1.5C4.785 1.5 3.1875 3.0975 3.1875 5.0625C3.1875 6.99 4.695 8.55 6.66 8.6175C6.72 8.61 6.78 8.61 6.825 8.6175C6.84 8.6175 6.8475 8.6175 6.8625 8.6175C6.87 8.6175 6.87 8.6175 6.8775 8.6175C8.7975 8.55 10.305 6.99 10.3125 5.0625C10.3125 3.0975 8.715 1.5 6.75 1.5Z" fill="white"/>
<path d="M10.56 10.6125C8.4675 9.21753 5.055 9.21753 2.9475 10.6125C1.995 11.25 1.47 12.1125 1.47 13.035C1.47 13.9575 1.995 14.8125 2.94 15.4425C3.99 16.1475 5.37 16.5 6.75 16.5C8.13 16.5 9.51 16.1475 10.56 15.4425C11.505 14.805 12.03 13.95 12.03 13.02C12.0225 12.0975 11.505 11.2425 10.56 10.6125Z" fill="white"/>
<path d="M14.9925 5.50495C15.1125 6.95995 14.0775 8.23495 12.645 8.40745C12.6375 8.40745 12.6375 8.40745 12.63 8.40745H12.6075C12.5625 8.40745 12.5175 8.40745 12.48 8.42245C11.7525 8.45995 11.085 8.22745 10.5825 7.79995C11.355 7.10995 11.7975 6.07495 11.7075 4.94995C11.655 4.34245 11.445 3.78745 11.13 3.31495C11.415 3.17245 11.745 3.08245 12.0825 3.05245C13.5525 2.92495 14.865 4.01995 14.9925 5.50495Z" fill="white"/>
<path d="M16.4925 12.4426C16.4325 13.1701 15.9675 13.8001 15.1875 14.2276C14.4375 14.6401 13.4925 14.8351 12.555 14.8126C13.095 14.3251 13.41 13.7176 13.47 13.0726C13.545 12.1426 13.1025 11.2501 12.2175 10.5376C11.715 10.1401 11.13 9.82505 10.4925 9.59255C12.15 9.11255 14.235 9.43505 15.5175 10.4701C16.2075 11.0251 16.56 11.7226 16.4925 12.4426Z" fill="white"/>
</svg>
