<svg width="24" height="24" viewBox="0 0 24 24" fill="none" xmlns="http://www.w3.org/2000/svg">
<path d="M20.21 7.81945L12.51 12.2795C12.2 12.4595 11.81 12.4595 11.49 12.2795L3.78997 7.81945C3.23997 7.49945 3.09997 6.74945 3.51997 6.27945C3.80997 5.94945 4.13997 5.67945 4.48997 5.48945L9.90997 2.48945C11.07 1.83945 12.95 1.83945 14.11 2.48945L19.53 5.48945C19.88 5.67945 20.21 5.95945 20.5 6.27945C20.9 6.74945 20.76 7.49945 20.21 7.81945Z" fill="#35BB5D"/>
<path d="M11.43 14.1409V20.9609C11.43 21.7209 10.66 22.2209 9.97998 21.8909C7.91998 20.8809 4.44998 18.9909 4.44998 18.9909C3.22998 18.3009 2.22998 16.5609 2.22998 15.1309V9.97086C2.22998 9.18086 3.05998 8.68086 3.73998 9.07086L10.93 13.2409C11.23 13.4309 11.43 13.7709 11.43 14.1409Z" fill="#35BB5D"/>
<path d="M12.5701 14.1409V20.9609C12.5701 21.7209 13.3401 22.2209 14.0201 21.8909C16.0801 20.8809 19.5501 18.9909 19.5501 18.9909C20.7701 18.3009 21.7701 16.5609 21.7701 15.1309V9.97086C21.7701 9.18086 20.9401 8.68086 20.2601 9.07086L13.0701 13.2409C12.7701 13.4309 12.5701 13.7709 12.5701 14.1409Z" fill="#35BB5D"/>
</svg>
