<svg width="16" height="16" viewBox="0 0 16 16" fill="none" xmlns="http://www.w3.org/2000/svg">
<path d="M11.1667 5.16732H4.83337C4.56004 5.16732 4.33337 4.94065 4.33337 4.66732V3.33398C4.33337 1.62732 5.12671 0.833984 6.83337 0.833984H9.16671C10.8734 0.833984 11.6667 1.62732 11.6667 3.33398V4.66732C11.6667 4.94065 11.44 5.16732 11.1667 5.16732ZM5.33337 4.16732H10.6667V3.33398C10.6667 2.20065 10.3 1.83398 9.16671 1.83398H6.83337C5.70004 1.83398 5.33337 2.20065 5.33337 3.33398V4.16732Z" fill="white"/>
<path d="M8.66671 15.1667H7.33337C5.72004 15.1667 4.83337 14.28 4.83337 12.6667V10C4.83337 9.72667 5.06004 9.5 5.33337 9.5H10.6667C10.94 9.5 11.1667 9.72667 11.1667 10V12.6667C11.1667 14.28 10.28 15.1667 8.66671 15.1667ZM5.83337 10.5V12.6667C5.83337 13.72 6.28004 14.1667 7.33337 14.1667H8.66671C9.72004 14.1667 10.1667 13.72 10.1667 12.6667V10.5H5.83337Z" fill="white"/>
<path d="M12 12.4993H10.6667C10.3933 12.4993 10.1667 12.2727 10.1667 11.9994V10.4993H5.83333V11.9994C5.83333 12.2727 5.60667 12.4993 5.33333 12.4993H4C2.38667 12.4993 1.5 11.6127 1.5 9.99935V6.66602C1.5 5.05268 2.38667 4.16602 4 4.16602H12C13.6133 4.16602 14.5 5.05268 14.5 6.66602V9.99935C14.5 11.6127 13.6133 12.4993 12 12.4993ZM11.1667 11.4993H12C13.0533 11.4993 13.5 11.0527 13.5 9.99935V6.66602C13.5 5.61268 13.0533 5.16602 12 5.16602H4C2.94667 5.16602 2.5 5.61268 2.5 6.66602V9.99935C2.5 11.0527 2.94667 11.4993 4 11.4993H4.83333V9.99935C4.83333 9.72602 5.06 9.49935 5.33333 9.49935H10.6667C10.94 9.49935 11.1667 9.72602 11.1667 9.99935V11.4993Z" fill="white"/>
<path d="M11.3333 10.5H4.66663C4.39329 10.5 4.16663 10.2733 4.16663 10C4.16663 9.72667 4.39329 9.5 4.66663 9.5H11.3333C11.6066 9.5 11.8333 9.72667 11.8333 10C11.8333 10.2733 11.6066 10.5 11.3333 10.5Z" fill="white"/>
<path d="M6.66663 7.83398H4.66663C4.39329 7.83398 4.16663 7.60732 4.16663 7.33398C4.16663 7.06065 4.39329 6.83398 4.66663 6.83398H6.66663C6.93996 6.83398 7.16663 7.06065 7.16663 7.33398C7.16663 7.60732 6.93996 7.83398 6.66663 7.83398Z" fill="white"/>
</svg>
