<svg width="24" height="24" viewBox="0 0 24 24" fill="none" xmlns="http://www.w3.org/2000/svg">
<path d="M22 9.75C21.59 9.75 21.25 9.41 21.25 9V7C21.25 4.42 19.58 2.75 17 2.75H7C4.42 2.75 2.75 4.42 2.75 7V9C2.75 9.41 2.41 9.75 2 9.75C1.59 9.75 1.25 9.41 1.25 9V7C1.25 3.56 3.56 1.25 7 1.25H17C20.44 1.25 22.75 3.56 22.75 7V9C22.75 9.41 22.41 9.75 22 9.75Z" fill="#3B82F6"/>
<path d="M17 22.75H7C3.56 22.75 1.25 20.44 1.25 17V15C1.25 14.59 1.59 14.25 2 14.25C2.41 14.25 2.75 14.59 2.75 15V17C2.75 19.58 4.42 21.25 7 21.25H17C19.58 21.25 21.25 19.58 21.25 17V15C21.25 14.59 21.59 14.25 22 14.25C22.41 14.25 22.75 14.59 22.75 15V17C22.75 20.44 20.44 22.75 17 22.75Z" fill="#3B82F6"/>
<path d="M16.3999 8.21094L12.6399 6.18094C12.2399 5.97094 11.7699 5.97094 11.3699 6.18094L7.59991 8.21094C7.32991 8.36094 7.15991 8.65094 7.15991 8.97094C7.15991 9.30094 7.32991 9.59094 7.59991 9.74094L11.3599 11.7709C11.5599 11.8809 11.7799 11.9309 11.9999 11.9309C12.2199 11.9309 12.4399 11.8809 12.6399 11.7709L16.3999 9.74094C16.6699 9.59094 16.8399 9.30094 16.8399 8.97094C16.8399 8.65094 16.6699 8.36094 16.3999 8.21094Z" fill="#3B82F6"/>
<path d="M10.74 12.4704L7.24 10.7204C6.97 10.5904 6.66 10.6004 6.4 10.7604C6.15 10.9204 6 11.1904 6 11.4904V14.8004C6 15.3704 6.32 15.8904 6.83 16.1404L10.33 17.8904C10.45 17.9504 10.58 17.9804 10.72 17.9804C10.88 17.9804 11.03 17.9404 11.17 17.8504C11.43 17.6904 11.58 17.4204 11.58 17.1204V13.8104C11.57 13.2404 11.26 12.7304 10.74 12.4704Z" fill="#3B82F6"/>
<path d="M17.5899 10.7604C17.3299 10.6004 17.0199 10.5904 16.7499 10.7204L13.2499 12.4704C12.7399 12.7304 12.4199 13.2404 12.4199 13.8104V17.1204C12.4199 17.4204 12.5699 17.6904 12.8299 17.8504C12.9699 17.9404 13.1199 17.9804 13.2799 17.9804C13.4099 17.9804 13.5399 17.9504 13.6699 17.8904L17.1699 16.1404C17.6799 15.8804 17.9999 15.3704 17.9999 14.8004V11.4904C17.9999 11.1904 17.8499 10.9204 17.5899 10.7604Z" fill="#3B82F6"/>
</svg>
