<svg width="24" height="25" viewBox="0 0 24 25" fill="none" xmlns="http://www.w3.org/2000/svg">
<path d="M16 22.9082H8C4.98 22.9082 3.25 21.1782 3.25 18.1582V8.4082C3.25 5.2582 4.85 3.6582 8 3.6582C8.41 3.6582 8.75 3.9982 8.75 4.4082C8.75 4.8082 8.91 5.1882 9.19 5.4682C9.47 5.7482 9.85 5.9082 10.25 5.9082H13.75C14.58 5.9082 15.25 5.2382 15.25 4.4082C15.25 3.9982 15.59 3.6582 16 3.6582C19.15 3.6582 20.75 5.2582 20.75 8.4082V18.1582C20.75 21.1782 19.02 22.9082 16 22.9082ZM7.34998 5.17821C5.76998 5.30821 4.75 6.0182 4.75 8.4082V18.1582C4.75 20.3782 5.78 21.4082 8 21.4082H16C18.22 21.4082 19.25 20.3782 19.25 18.1582V8.4082C19.25 6.0182 18.23 5.31821 16.65 5.17821C16.31 6.45821 15.14 7.4082 13.75 7.4082H10.25C9.45 7.4082 8.70001 7.0982 8.13 6.5282C7.75 6.1482 7.48998 5.68821 7.34998 5.17821Z" fill="#64748B"/>
<path d="M13.75 7.4082H10.25C9.45 7.4082 8.7 7.0982 8.13 6.5282C7.56 5.9582 7.25 5.2082 7.25 4.4082C7.25 2.7582 8.6 1.4082 10.25 1.4082H13.75C14.55 1.4082 15.3 1.71821 15.87 2.28821C16.44 2.85821 16.75 3.6082 16.75 4.4082C16.75 6.0582 15.4 7.4082 13.75 7.4082ZM10.25 2.9082C9.42 2.9082 8.75 3.5782 8.75 4.4082C8.75 4.8082 8.91 5.1882 9.19 5.4682C9.47 5.7482 9.85 5.9082 10.25 5.9082H13.75C14.58 5.9082 15.25 5.2382 15.25 4.4082C15.25 4.0082 15.09 3.62821 14.81 3.34821C14.53 3.06821 14.15 2.9082 13.75 2.9082H10.25Z" fill="#64748B"/>
<path d="M12 13.9082H8C7.59 13.9082 7.25 13.5682 7.25 13.1582C7.25 12.7482 7.59 12.4082 8 12.4082H12C12.41 12.4082 12.75 12.7482 12.75 13.1582C12.75 13.5682 12.41 13.9082 12 13.9082Z" fill="#64748B"/>
<path d="M16 17.9082H8C7.59 17.9082 7.25 17.5682 7.25 17.1582C7.25 16.7482 7.59 16.4082 8 16.4082H16C16.41 16.4082 16.75 16.7482 16.75 17.1582C16.75 17.5682 16.41 17.9082 16 17.9082Z" fill="#64748B"/>
</svg>
