<svg width="24" height="25" viewBox="0 0 24 25" fill="none" xmlns="http://www.w3.org/2000/svg">
<path d="M12.0002 22.9083C11.3302 22.9083 10.6502 22.7383 10.0502 22.3883L4.11016 18.9583C2.91016 18.2583 2.16016 16.9683 2.16016 15.5783V8.73832C2.16016 7.34832 2.91016 6.05831 4.11016 5.35831L10.0502 1.92832C11.2502 1.22832 12.7402 1.22832 13.9502 1.92832L19.8902 5.35831C21.0902 6.05831 21.8402 7.34832 21.8402 8.73832V15.5783C21.8402 16.9683 21.0902 18.2583 19.8902 18.9583L13.9502 22.3883C13.3502 22.7383 12.6702 22.9083 12.0002 22.9083ZM12.0002 2.9083C11.5902 2.9083 11.1702 3.01831 10.8002 3.22831L4.86016 6.6583C4.12016 7.0883 3.66016 7.87832 3.66016 8.73832V15.5783C3.66016 16.4283 4.12016 17.2283 4.86016 17.6583L10.8002 21.0883C11.5402 21.5183 12.4602 21.5183 13.2002 21.0883L19.1402 17.6583C19.8802 17.2283 20.3402 16.4383 20.3402 15.5783V8.73832C20.3402 7.88832 19.8802 7.0883 19.1402 6.6583L13.2002 3.22831C12.8302 3.01831 12.4102 2.9083 12.0002 2.9083Z" fill="white"/>
<path d="M11.9999 11.908C10.2999 11.908 8.91992 10.528 8.91992 8.828C8.91992 7.128 10.2999 5.74805 11.9999 5.74805C13.6999 5.74805 15.0799 7.128 15.0799 8.828C15.0799 10.528 13.6999 11.908 11.9999 11.908ZM11.9999 7.24805C11.1299 7.24805 10.4199 7.958 10.4199 8.828C10.4199 9.698 11.1299 10.408 11.9999 10.408C12.8699 10.408 13.5799 9.698 13.5799 8.828C13.5799 7.958 12.8699 7.24805 11.9999 7.24805Z" fill="white"/>
<path d="M16 17.5685C15.59 17.5685 15.25 17.2285 15.25 16.8185C15.25 15.4385 13.79 14.3086 12 14.3086C10.21 14.3086 8.75 15.4385 8.75 16.8185C8.75 17.2285 8.41 17.5685 8 17.5685C7.59 17.5685 7.25 17.2285 7.25 16.8185C7.25 14.6085 9.38 12.8086 12 12.8086C14.62 12.8086 16.75 14.6085 16.75 16.8185C16.75 17.2285 16.41 17.5685 16 17.5685Z" fill="white"/>
</svg>
