<svg width="24" height="25" viewBox="0 0 24 25" fill="none" xmlns="http://www.w3.org/2000/svg">
<path d="M20.04 6.97838L14.28 2.94838C12.71 1.84838 10.3 1.90839 8.78999 3.07839L3.77999 6.98838C2.77999 7.76838 1.98999 9.36839 1.98999 10.6284V17.5284C1.98999 20.0784 4.05999 22.1584 6.60999 22.1584H17.39C19.94 22.1584 22.01 20.0884 22.01 17.5384V10.7584C22.01 9.40839 21.14 7.74838 20.04 6.97838ZM12.75 18.1584C12.75 18.5684 12.41 18.9084 12 18.9084C11.59 18.9084 11.25 18.5684 11.25 18.1584V15.1584C11.25 14.7484 11.59 14.4084 12 14.4084C12.41 14.4084 12.75 14.7484 12.75 15.1584V18.1584Z" fill="#64748B"/>
</svg>
