<svg width="24" height="25" viewBox="0 0 24 25" fill="none" xmlns="http://www.w3.org/2000/svg">
<path d="M17 21.4082H7C3.35 21.4082 1.25 19.3082 1.25 15.6582V8.6582C1.25 5.0082 3.35 2.9082 7 2.9082H17C20.65 2.9082 22.75 5.0082 22.75 8.6582V15.6582C22.75 19.3082 20.65 21.4082 17 21.4082ZM7 4.4082C4.14 4.4082 2.75 5.7982 2.75 8.6582V15.6582C2.75 18.5182 4.14 19.9082 7 19.9082H17C19.86 19.9082 21.25 18.5182 21.25 15.6582V8.6582C21.25 5.7982 19.86 4.4082 17 4.4082H7Z" fill="white"/>
<path d="M6 16.9082C5.59 16.9082 5.25 16.5682 5.25 16.1582V8.1582C5.25 7.7482 5.59 7.4082 6 7.4082C6.41 7.4082 6.75 7.7482 6.75 8.1582V16.1582C6.75 16.5682 6.41 16.9082 6 16.9082Z" fill="white"/>
<path d="M9 12.9082C8.59 12.9082 8.25 12.5682 8.25 12.1582V8.1582C8.25 7.7482 8.59 7.4082 9 7.4082C9.41 7.4082 9.75 7.7482 9.75 8.1582V12.1582C9.75 12.5682 9.41 12.9082 9 12.9082Z" fill="white"/>
<path d="M9 16.9082C8.59 16.9082 8.25 16.5682 8.25 16.1582V15.1582C8.25 14.7482 8.59 14.4082 9 14.4082C9.41 14.4082 9.75 14.7482 9.75 15.1582V16.1582C9.75 16.5682 9.41 16.9082 9 16.9082Z" fill="white"/>
<path d="M15 9.9082C14.59 9.9082 14.25 9.5682 14.25 9.1582V8.1582C14.25 7.7482 14.59 7.4082 15 7.4082C15.41 7.4082 15.75 7.7482 15.75 8.1582V9.1582C15.75 9.5682 15.41 9.9082 15 9.9082Z" fill="white"/>
<path d="M12 16.9082C11.59 16.9082 11.25 16.5682 11.25 16.1582V8.1582C11.25 7.7482 11.59 7.4082 12 7.4082C12.41 7.4082 12.75 7.7482 12.75 8.1582V16.1582C12.75 16.5682 12.41 16.9082 12 16.9082Z" fill="white"/>
<path d="M15 16.9082C14.59 16.9082 14.25 16.5682 14.25 16.1582V12.1582C14.25 11.7482 14.59 11.4082 15 11.4082C15.41 11.4082 15.75 11.7482 15.75 12.1582V16.1582C15.75 16.5682 15.41 16.9082 15 16.9082Z" fill="white"/>
<path d="M18 16.9082C17.59 16.9082 17.25 16.5682 17.25 16.1582V8.1582C17.25 7.7482 17.59 7.4082 18 7.4082C18.41 7.4082 18.75 7.7482 18.75 8.1582V16.1582C18.75 16.5682 18.41 16.9082 18 16.9082Z" fill="white"/>
</svg>
