<svg width="24" height="25" viewBox="0 0 24 25" fill="none" xmlns="http://www.w3.org/2000/svg">
<path d="M15.26 22.408H8.73998C3.82998 22.408 1.72998 20.308 1.72998 15.398V15.268C1.72998 10.828 3.47998 8.68798 7.39998 8.31798C7.79998 8.28798 8.17998 8.58798 8.21998 8.99798C8.25998 9.40798 7.95998 9.77798 7.53998 9.81798C4.39998 10.108 3.22998 11.588 3.22998 15.278V15.408C3.22998 19.478 4.66998 20.918 8.73998 20.918H15.26C19.33 20.918 20.77 19.478 20.77 15.408V15.278C20.77 11.568 19.58 10.088 16.38 9.81798C15.97 9.77798 15.66 9.41799 15.7 9.00799C15.74 8.59799 16.09 8.28798 16.51 8.32798C20.49 8.66798 22.27 10.818 22.27 15.288V15.418C22.27 20.308 20.17 22.408 15.26 22.408Z" fill="#64748B"/>
<path d="M12 15.9083C11.59 15.9083 11.25 15.5683 11.25 15.1583V3.77832C11.25 3.36832 11.59 3.02832 12 3.02832C12.41 3.02832 12.75 3.36832 12.75 3.77832V15.1583C12.75 15.5683 12.41 15.9083 12 15.9083Z" fill="#64748B"/>
<path d="M15.3501 6.75814C15.1601 6.75814 14.9701 6.68814 14.8201 6.53814L12.0001 3.71814L9.18009 6.53814C8.89009 6.82814 8.41009 6.82814 8.12009 6.53814C7.83009 6.24814 7.83009 5.76814 8.12009 5.47814L11.4701 2.12814C11.7601 1.83814 12.2401 1.83814 12.5301 2.12814L15.8801 5.47814C16.1701 5.76814 16.1701 6.24814 15.8801 6.53814C15.7401 6.68814 15.5401 6.75814 15.3501 6.75814Z" fill="#64748B"/>
</svg>
