<svg width="24" height="25" viewBox="0 0 24 25" fill="none" xmlns="http://www.w3.org/2000/svg">
<path d="M8.99994 17.9082C8.58994 17.9082 8.24994 17.5682 8.24994 17.1582V12.9682L7.52994 13.6882C7.23994 13.9782 6.75994 13.9782 6.46994 13.6882C6.17994 13.3982 6.17994 12.9182 6.46994 12.6282L8.46994 10.6282C8.67994 10.4182 9.00994 10.3482 9.28994 10.4682C9.56994 10.5782 9.74994 10.8582 9.74994 11.1582V17.1582C9.74994 17.5682 9.40994 17.9082 8.99994 17.9082Z" fill="white"/>
<path d="M10.9999 13.9081C10.8099 13.9081 10.6199 13.8381 10.4699 13.6881L8.46994 11.6881C8.17994 11.3981 8.17994 10.9181 8.46994 10.6281C8.75994 10.3381 9.23994 10.3381 9.52994 10.6281L11.5299 12.6281C11.8199 12.9181 11.8199 13.3981 11.5299 13.6881C11.3799 13.8381 11.1899 13.9081 10.9999 13.9081Z" fill="white"/>
<path d="M15 22.9082H9C3.57 22.9082 1.25 20.5882 1.25 15.1582V9.1582C1.25 3.7282 3.57 1.4082 9 1.4082H14C14.41 1.4082 14.75 1.7482 14.75 2.1582C14.75 2.5682 14.41 2.9082 14 2.9082H9C4.39 2.9082 2.75 4.5482 2.75 9.1582V15.1582C2.75 19.7682 4.39 21.4082 9 21.4082H15C19.61 21.4082 21.25 19.7682 21.25 15.1582V10.1582C21.25 9.7482 21.59 9.4082 22 9.4082C22.41 9.4082 22.75 9.7482 22.75 10.1582V15.1582C22.75 20.5882 20.43 22.9082 15 22.9082Z" fill="white"/>
<path d="M22 10.9082H18C14.58 10.9082 13.25 9.57819 13.25 6.15819V2.15819C13.25 1.85819 13.43 1.57819 13.71 1.46819C13.99 1.34819 14.31 1.41819 14.53 1.62819L22.53 9.62819C22.74 9.83819 22.81 10.1682 22.69 10.4482C22.57 10.7282 22.3 10.9082 22 10.9082ZM14.75 3.96819V6.15819C14.75 8.73819 15.42 9.40819 18 9.40819H20.19L14.75 3.96819Z" fill="white"/>
</svg>
