<svg width="24" height="24" viewBox="0 0 24 24" fill="none" xmlns="http://www.w3.org/2000/svg">
<path d="M14.9999 22.7502C14.7299 22.7502 14.4799 22.6002 14.3499 22.3702C14.2199 22.1302 14.2199 21.8502 14.3599 21.6102L15.4099 19.8602C15.6199 19.5102 16.0799 19.3902 16.4399 19.6002C16.7999 19.8102 16.9099 20.2702 16.6999 20.6302L16.4299 21.0802C19.1899 20.4302 21.2599 17.9502 21.2599 14.9902C21.2599 14.5802 21.5999 14.2402 22.0099 14.2402C22.4199 14.2402 22.7599 14.5802 22.7599 14.9902C22.7499 19.2702 19.2699 22.7502 14.9999 22.7502Z" fill="white"/>
<path d="M2 9.75C1.59 9.75 1.25 9.41 1.25 9C1.25 4.73 4.73 1.25 9 1.25C9.27 1.25 9.52 1.4 9.65 1.63C9.78 1.87 9.78 2.15 9.64 2.39L8.59 4.14C8.38 4.49 7.92 4.61 7.56 4.39C7.21 4.18 7.09 3.72 7.31 3.36L7.58 2.91C4.81 3.56 2.75 6.04 2.75 9C2.75 9.41 2.41 9.75 2 9.75Z" fill="white"/>
<path d="M16.4 8.20996L12.64 6.17996C12.24 5.96996 11.77 5.96996 11.37 6.17996L7.60003 8.20996C7.33003 8.35996 7.16003 8.64996 7.16003 8.96996C7.16003 9.29996 7.33003 9.58996 7.60003 9.73996L11.36 11.77C11.56 11.88 11.78 11.93 12 11.93C12.22 11.93 12.44 11.88 12.64 11.77L16.4 9.73996C16.67 9.58996 16.84 9.29996 16.84 8.96996C16.84 8.64996 16.67 8.35996 16.4 8.20996Z" fill="white"/>
<path d="M10.74 12.4699L7.24 10.7199C6.97 10.5899 6.66 10.5999 6.4 10.7599C6.15 10.9199 6 11.1899 6 11.4899V14.7999C6 15.3699 6.32 15.8899 6.83 16.1399L10.33 17.8899C10.45 17.9499 10.58 17.9799 10.72 17.9799C10.88 17.9799 11.03 17.9399 11.17 17.8499C11.43 17.6899 11.58 17.4199 11.58 17.1199V13.8099C11.57 13.2399 11.26 12.7299 10.74 12.4699Z" fill="white"/>
<path d="M17.59 10.7599C17.33 10.5999 17.02 10.5899 16.75 10.7199L13.25 12.4699C12.74 12.7299 12.42 13.2399 12.42 13.8099V17.1199C12.42 17.4199 12.57 17.6899 12.83 17.8499C12.97 17.9399 13.12 17.9799 13.28 17.9799C13.41 17.9799 13.54 17.9499 13.67 17.8899L17.17 16.1399C17.68 15.8799 18 15.3699 18 14.7999V11.4899C18 11.1899 17.85 10.9199 17.59 10.7599Z" fill="white"/>
</svg>
