<svg width="35" height="35" viewBox="0 0 48 48" fill="none" xmlns="http://www.w3.org/2000/svg">
<path d="M0 24C0 10.7452 10.7452 0 24 0C37.2548 0 48 10.7452 48 24C48 37.2548 37.2548 48 24 48C10.7452 48 0 37.2548 0 24Z" fill="#020617"/>
<path d="M24 34.25C18.3461 34.25 13.75 29.6539 13.75 24C13.75 18.3461 18.3461 13.75 24 13.75C24.1339 13.75 24.25 13.8661 24.25 14C24.25 14.1339 24.1339 14.25 24 14.25C18.6239 14.25 14.25 18.6239 14.25 24C14.25 29.3761 18.6239 33.75 24 33.75C29.3761 33.75 33.75 29.3761 33.75 24C33.75 23.8661 33.8661 23.75 34 23.75C34.1339 23.75 34.25 23.8661 34.25 24C34.25 29.6539 29.6539 34.25 24 34.25Z" fill="white" stroke="white"/>
<path d="M24.9999 23.7502C24.8099 23.7502 24.6199 23.6802 24.4699 23.5302C24.1799 23.2402 24.1799 22.7602 24.4699 22.4702L32.6699 14.2702C32.9599 13.9802 33.4399 13.9802 33.7299 14.2702C34.0199 14.5602 34.0199 15.0402 33.7299 15.3302L25.5299 23.5302C25.3799 23.6802 25.1899 23.7502 24.9999 23.7502Z" fill="white"/>
<path d="M33.9999 19.58C33.5899 19.58 33.2499 19.24 33.2499 18.83V14.75H29.1699C28.7599 14.75 28.4199 14.41 28.4199 14C28.4199 13.59 28.7599 13.25 29.1699 13.25H33.9999C34.4099 13.25 34.7499 13.59 34.7499 14V18.83C34.7499 19.24 34.4099 19.58 33.9999 19.58Z" fill="white"/>
</svg>
