<svg width="24" height="24" viewBox="0 0 24 24" fill="none" xmlns="http://www.w3.org/2000/svg">
<path d="M20.21 7.82L12.51 12.28C12.2 12.46 11.81 12.46 11.49 12.28L3.78997 7.82C3.23997 7.5 3.09997 6.75 3.51997 6.28C3.80997 5.95 4.13997 5.68 4.48997 5.49L9.90997 2.49C11.07 1.84 12.95 1.84 14.11 2.49L19.53 5.49C19.88 5.68 20.21 5.96 20.5 6.28C20.9 6.75 20.76 7.5 20.21 7.82Z" fill="#3B82F6"/>
<path d="M11.43 14.14V20.96C11.43 21.72 10.66 22.22 9.97998 21.89C7.91998 20.88 4.44998 18.99 4.44998 18.99C3.22998 18.3 2.22998 16.56 2.22998 15.13V9.97C2.22998 9.18 3.05998 8.68 3.73998 9.07L10.93 13.24C11.23 13.43 11.43 13.77 11.43 14.14Z" fill="#3B82F6"/>
<path d="M12.57 14.14V20.96C12.57 21.72 13.34 22.22 14.02 21.89C16.08 20.88 19.55 18.99 19.55 18.99C20.77 18.3 21.77 16.56 21.77 15.13V9.97C21.77 9.18 20.94 8.68 20.26 9.07L13.07 13.24C12.77 13.43 12.57 13.77 12.57 14.14Z" fill="#3B82F6"/>
</svg>
