<svg width="24" height="24" viewBox="0 0 24 24" fill="none" xmlns="http://www.w3.org/2000/svg">
<path d="M6.67 14H4C2.9 14 2 14.9 2 16V21C2 21.55 2.45 22 3 22H6.67C7.22 22 7.67 21.55 7.67 21V15C7.67 14.45 7.22 14 6.67 14Z" fill="#020617"/>
<path d="M13.33 10H10.66C9.56003 10 8.66003 10.9 8.66003 12V21C8.66003 21.55 9.11003 22 9.66003 22H14.33C14.88 22 15.33 21.55 15.33 21V12C15.33 10.9 14.44 10 13.33 10Z" fill="#020617"/>
<path d="M20 17H17.33C16.78 17 16.33 17.45 16.33 18V21C16.33 21.55 16.78 22 17.33 22H21C21.55 22 22 21.55 22 21V19C22 17.9 21.1 17 20 17Z" fill="#020617"/>
<path d="M15.0099 4.85001C15.3199 4.54001 15.4399 4.17001 15.3399 3.85001C15.2399 3.53001 14.9299 3.30001 14.4899 3.23001L13.5299 3.07001C13.4899 3.07001 13.3999 3.00001 13.3799 2.96001L12.8499 1.90001C12.4499 1.09001 11.5399 1.09001 11.1399 1.90001L10.6099 2.96001C10.5999 3.00001 10.5099 3.07001 10.4699 3.07001L9.50994 3.23001C9.06994 3.30001 8.76994 3.53001 8.65994 3.85001C8.55994 4.17001 8.67994 4.54001 8.98994 4.85001L9.72994 5.60001C9.76994 5.63001 9.79994 5.75001 9.78994 5.79001L9.57994 6.71001C9.41994 7.40001 9.67994 7.71001 9.84994 7.83001C10.0199 7.95001 10.3899 8.11001 10.9999 7.75001L11.8999 7.22001C11.9399 7.19001 12.0699 7.19001 12.1099 7.22001L12.9999 7.75001C13.2799 7.92001 13.5099 7.97001 13.6899 7.97001C13.8999 7.97001 14.0499 7.89001 14.1399 7.83001C14.3099 7.71001 14.5699 7.40001 14.4099 6.71001L14.1999 5.79001C14.1899 5.74001 14.2199 5.63001 14.2599 5.60001L15.0099 4.85001Z" fill="#020617"/>
</svg>
