<svg width="16" height="16" viewBox="0 0 16 16" fill="none" xmlns="http://www.w3.org/2000/svg">
<path d="M5.33337 3.83337C5.06004 3.83337 4.83337 3.60671 4.83337 3.33337V1.33337C4.83337 1.06004 5.06004 0.833374 5.33337 0.833374C5.60671 0.833374 5.83337 1.06004 5.83337 1.33337V3.33337C5.83337 3.60671 5.60671 3.83337 5.33337 3.83337Z" fill="#334155"/>
<path d="M10.6666 3.83337C10.3933 3.83337 10.1666 3.60671 10.1666 3.33337V1.33337C10.1666 1.06004 10.3933 0.833374 10.6666 0.833374C10.94 0.833374 11.1666 1.06004 11.1666 1.33337V3.33337C11.1666 3.60671 10.94 3.83337 10.6666 3.83337Z" fill="#334155"/>
<path d="M13.6667 6.55994H2.33337C2.06004 6.55994 1.83337 6.33327 1.83337 6.05994C1.83337 5.7866 2.06004 5.55994 2.33337 5.55994H13.6667C13.94 5.55994 14.1667 5.7866 14.1667 6.05994C14.1667 6.33327 13.94 6.55994 13.6667 6.55994Z" fill="#334155"/>
<path d="M10.6667 15.1667H5.33333C2.9 15.1667 1.5 13.7667 1.5 11.3334V5.66671C1.5 3.23337 2.9 1.83337 5.33333 1.83337H10.6667C13.1 1.83337 14.5 3.23337 14.5 5.66671V11.3334C14.5 13.7667 13.1 15.1667 10.6667 15.1667ZM5.33333 2.83337C3.42667 2.83337 2.5 3.76004 2.5 5.66671V11.3334C2.5 13.24 3.42667 14.1667 5.33333 14.1667H10.6667C12.5733 14.1667 13.5 13.24 13.5 11.3334V5.66671C13.5 3.76004 12.5733 2.83337 10.6667 2.83337H5.33333Z" fill="#334155"/>
<path d="M5.66667 9.66672C5.58 9.66672 5.49333 9.64672 5.41333 9.61339C5.33333 9.58006 5.26001 9.53338 5.19334 9.47338C5.13334 9.40671 5.08666 9.33339 5.05332 9.25339C5.01999 9.17339 5 9.08672 5 9.00005C5 8.82672 5.07334 8.65339 5.19334 8.52672C5.26001 8.46672 5.33333 8.42004 5.41333 8.38671C5.53333 8.33337 5.66667 8.32004 5.80001 8.34671C5.84001 8.35337 5.88 8.36671 5.92 8.38671C5.96 8.40004 6 8.42006 6.04 8.44672C6.07333 8.47339 6.10666 8.50005 6.13999 8.52672C6.16666 8.56005 6.19999 8.59338 6.21999 8.62672C6.24666 8.66672 6.26668 8.70671 6.28001 8.74671C6.30001 8.78671 6.31334 8.82671 6.32001 8.86671C6.32667 8.91337 6.33333 8.95338 6.33333 9.00005C6.33333 9.17338 6.25999 9.34671 6.13999 9.47338C6.01333 9.59338 5.84 9.66672 5.66667 9.66672Z" fill="#334155"/>
<path d="M8.00004 9.6667C7.82671 9.6667 7.65338 9.59337 7.52671 9.47337C7.50005 9.44003 7.47338 9.4067 7.44672 9.37337C7.42005 9.33337 7.40003 9.29337 7.3867 9.25337C7.3667 9.21337 7.35337 9.17338 7.3467 9.13338C7.34003 9.08671 7.33337 9.0467 7.33337 9.00004C7.33337 8.91337 7.35337 8.8267 7.3867 8.7467C7.42003 8.6667 7.46671 8.59338 7.52671 8.52671C7.71338 8.34004 8.01338 8.28003 8.25338 8.3867C8.34004 8.42003 8.4067 8.46671 8.47337 8.52671C8.59337 8.65338 8.66671 8.8267 8.66671 9.00004C8.66671 9.0467 8.66005 9.08671 8.65338 9.13338C8.64671 9.17338 8.63338 9.21337 8.61338 9.25337C8.60005 9.29337 8.58003 9.33337 8.55337 9.37337C8.5267 9.4067 8.50004 9.44003 8.47337 9.47337C8.4067 9.53337 8.34004 9.58005 8.25338 9.61338C8.17338 9.64671 8.08671 9.6667 8.00004 9.6667Z" fill="#334155"/>
<path d="M5.66667 12C5.58 12 5.49333 11.98 5.41333 11.9466C5.33333 11.9133 5.26001 11.8666 5.19334 11.8066C5.13334 11.74 5.08666 11.6733 5.05332 11.5866C5.01999 11.5066 5 11.42 5 11.3333C5 11.16 5.07334 10.9866 5.19334 10.86C5.26001 10.8 5.33333 10.7533 5.41333 10.7199C5.66 10.6133 5.95333 10.6733 6.13999 10.86C6.16666 10.8933 6.19999 10.9266 6.21999 10.96C6.24666 11 6.26668 11.04 6.28001 11.08C6.30001 11.12 6.31334 11.16 6.32001 11.2066C6.32667 11.2466 6.33333 11.2933 6.33333 11.3333C6.33333 11.5066 6.25999 11.68 6.13999 11.8066C6.01333 11.9266 5.84 12 5.66667 12Z" fill="#334155"/>
</svg>
