<svg width="24" height="25" viewBox="0 0 24 25" fill="none" xmlns="http://www.w3.org/2000/svg">
<path d="M9.94978 22.8639H7.77979C7.38979 22.8639 6.60979 22.7438 6.15979 22.3038L4.45979 20.9939L5.37978 19.8038L7.14979 21.1739C7.27979 21.2839 7.54979 21.3639 7.77979 21.3639H9.94978C10.3198 21.3639 10.7398 21.0539 10.8198 20.7339L12.2098 16.5039C12.2498 16.4039 12.2798 16.2539 12.2098 16.1439C12.1498 16.0539 12.0098 16.0039 11.8398 16.0039H9.54979C9.15979 16.0039 8.79979 15.8339 8.53979 15.5439C8.27979 15.2439 8.16979 14.8638 8.22979 14.4538L8.51978 12.6139C8.55978 12.4439 8.43979 12.2338 8.27979 12.1838C8.14979 12.1338 7.92978 12.2239 7.87978 12.2939L5.52979 15.7839L4.27979 14.9438L6.61979 11.4538C7.05979 10.7938 8.01979 10.4939 8.75979 10.7739C9.60979 11.0539 10.1698 12.0139 9.96979 12.8939L9.71979 14.4939H11.8098C12.4798 14.4939 13.0598 14.7739 13.4098 15.2739C13.7498 15.7539 13.8198 16.3839 13.5998 16.9839L12.2298 21.1439C12.0298 22.0839 11.0098 22.8639 9.94978 22.8639Z" fill="white"/>
<path d="M3.71976 22.2339H3.14977C1.58977 22.2339 1.25977 21.2339 1.25977 20.3939V14.7939C1.25977 13.9539 1.58977 12.9539 3.14977 12.9539H3.71976C5.27976 12.9539 5.60976 13.9539 5.60976 14.7939V20.3939C5.60976 21.2339 5.27976 22.2339 3.71976 22.2339ZM2.78976 20.6938C2.79976 20.6938 2.89976 20.7339 3.13976 20.7339H3.70976C3.96976 20.7339 4.05977 20.6938 4.07977 20.6838C4.07977 20.6738 4.10976 20.6039 4.10976 20.3939V14.7939C4.10976 14.5839 4.07976 14.5039 4.06976 14.4939C4.06976 14.5139 3.96976 14.4539 3.71976 14.4539H3.14977C2.88977 14.4539 2.79976 14.4939 2.77976 14.5039C2.77976 14.5139 2.74976 14.5839 2.74976 14.7939V20.3939C2.74976 20.6039 2.77976 20.6838 2.78976 20.6938Z" fill="white"/>
<path d="M15.8102 13.5538C15.6102 13.5538 15.4102 13.5239 15.2202 13.4539C14.3702 13.1739 13.8102 12.2139 14.0102 11.3339L14.2602 9.73389H12.1702C11.5002 9.73389 10.9202 9.45386 10.5702 8.95386C10.2302 8.47386 10.1602 7.8439 10.3802 7.2439L11.7502 3.08386C11.9802 2.14386 13.0102 1.36389 14.0602 1.36389H16.2302C16.6202 1.36389 17.4002 1.48395 17.8502 1.92395L19.5502 3.23389L18.6302 4.42395L16.8602 3.05383C16.7302 2.94383 16.4602 2.86389 16.2302 2.86389H14.0602C13.6902 2.86389 13.2702 3.1739 13.1902 3.4939L11.8002 7.72388C11.7602 7.82388 11.7302 7.97386 11.8002 8.08386C11.8602 8.17386 12.0002 8.22388 12.1702 8.22388H14.4602C14.8502 8.22388 15.2102 8.39384 15.4702 8.68384C15.7302 8.98384 15.8402 9.36393 15.7802 9.77393L15.4902 11.6139C15.4502 11.7839 15.5702 11.9939 15.7302 12.0439C15.8702 12.0939 16.0802 12.0138 16.1302 11.9338L18.4802 8.44385L19.7302 9.28394L17.3902 12.7739C17.0302 13.2539 16.4102 13.5538 15.8102 13.5538Z" fill="white"/>
<path d="M20.8599 11.2739H20.2899C18.7299 11.2739 18.3999 10.2738 18.3999 9.43384V3.83386C18.3999 2.99386 18.7299 1.9939 20.2899 1.9939H20.8599C22.4199 1.9939 22.7499 2.99386 22.7499 3.83386V9.43384C22.7499 10.2738 22.4199 11.2739 20.8599 11.2739ZM19.9299 9.73389C19.9399 9.73389 20.0399 9.77393 20.2799 9.77393H20.8499C21.1099 9.77393 21.1999 9.73388 21.2199 9.72388C21.2199 9.71388 21.2499 9.64384 21.2499 9.43384V3.83386C21.2499 3.62386 21.2199 3.55394 21.2099 3.53394C21.2199 3.57394 21.1099 3.4939 20.8599 3.4939H20.2899C20.0299 3.4939 19.9399 3.53395 19.9199 3.54395C19.9199 3.55395 19.8899 3.62386 19.8899 3.83386V9.43384C19.8899 9.64384 19.9199 9.71389 19.9299 9.73389Z" fill="white"/>
</svg>
