<svg width="24" height="25" viewBox="0 0 24 25" fill="none" xmlns="http://www.w3.org/2000/svg">
<path d="M21.09 7.09379C20.24 6.15379 18.82 5.68379 16.76 5.68379H16.52V5.64379C16.52 3.96379 16.52 1.88379 12.76 1.88379H11.24C7.48004 1.88379 7.48004 3.97379 7.48004 5.64379V5.69379H7.24004C5.17004 5.69379 3.76004 6.16379 2.91004 7.10379C1.92004 8.20379 1.95004 9.68379 2.05004 10.6938L2.06004 10.7638L2.13749 11.5771C2.15176 11.7268 2.23242 11.8621 2.35831 11.9445C2.59812 12.1014 2.99946 12.3601 3.24004 12.4938C3.38004 12.5838 3.53004 12.6638 3.68004 12.7438C5.39004 13.6838 7.27004 14.3138 9.18004 14.6238C9.27004 15.5638 9.68004 16.6638 11.87 16.6638C14.06 16.6638 14.49 15.5738 14.56 14.6038C16.6 14.2738 18.57 13.5638 20.35 12.5238C20.41 12.4938 20.45 12.4638 20.5 12.4338C20.8968 12.2096 21.3083 11.9333 21.6835 11.6626C21.7965 11.5811 21.8688 11.455 21.8842 11.3165L21.9 11.1738L21.95 10.7038C21.96 10.6438 21.96 10.5938 21.97 10.5238C22.05 9.51379 22.03 8.13379 21.09 7.09379ZM13.09 13.9438C13.09 15.0038 13.09 15.1638 11.86 15.1638C10.63 15.1638 10.63 14.9738 10.63 13.9538V12.6938H13.09V13.9438ZM8.91004 5.68379V5.64379C8.91004 3.94379 8.91004 3.31379 11.24 3.31379H12.76C15.09 3.31379 15.09 3.95379 15.09 5.64379V5.69379H8.91004V5.68379Z" fill="#64748B"/>
<path d="M20.8736 13.8482C21.2272 13.6799 21.6344 13.9602 21.599 14.3502L21.2401 18.304C21.0301 20.304 20.2101 22.344 15.8101 22.344H8.19009C3.79009 22.344 2.97009 20.304 2.76009 18.314L2.41938 14.5662C2.38433 14.1807 2.78229 13.9007 3.13493 14.0603C4.27434 14.5758 6.37748 15.4904 7.67666 15.8306C7.84097 15.8737 7.97386 15.9913 8.0458 16.1451C8.65277 17.4433 9.9692 18.134 11.8701 18.134C13.7522 18.134 15.0852 17.4167 15.6942 16.1154C15.7663 15.9614 15.8993 15.8438 16.0637 15.8006C17.4433 15.4376 19.6819 14.4152 20.8736 13.8482Z" fill="#64748B"/>
</svg>
