<svg width="24" height="25" viewBox="0 0 24 25" fill="none" xmlns="http://www.w3.org/2000/svg">
<path d="M7 10.8639H5C2.58 10.8639 1.25 9.53389 1.25 7.11389V5.11389C1.25 2.69389 2.58 1.36389 5 1.36389H7C9.42 1.36389 10.75 2.69389 10.75 5.11389V7.11389C10.75 9.53389 9.42 10.8639 7 10.8639ZM5 2.86389C3.42 2.86389 2.75 3.53389 2.75 5.11389V7.11389C2.75 8.69389 3.42 9.36389 5 9.36389H7C8.58 9.36389 9.25 8.69389 9.25 7.11389V5.11389C9.25 3.53389 8.58 2.86389 7 2.86389H5Z" fill="#64748B"/>
<path d="M19 10.8639H17C14.58 10.8639 13.25 9.53389 13.25 7.11389V5.11389C13.25 2.69389 14.58 1.36389 17 1.36389H19C21.42 1.36389 22.75 2.69389 22.75 5.11389V7.11389C22.75 9.53389 21.42 10.8639 19 10.8639ZM17 2.86389C15.42 2.86389 14.75 3.53389 14.75 5.11389V7.11389C14.75 8.69389 15.42 9.36389 17 9.36389H19C20.58 9.36389 21.25 8.69389 21.25 7.11389V5.11389C21.25 3.53389 20.58 2.86389 19 2.86389H17Z" fill="#64748B"/>
<path d="M19 22.8639H17C14.58 22.8639 13.25 21.5339 13.25 19.1139V17.1139C13.25 14.6939 14.58 13.3639 17 13.3639H19C21.42 13.3639 22.75 14.6939 22.75 17.1139V19.1139C22.75 21.5339 21.42 22.8639 19 22.8639ZM17 14.8639C15.42 14.8639 14.75 15.5339 14.75 17.1139V19.1139C14.75 20.6939 15.42 21.3639 17 21.3639H19C20.58 21.3639 21.25 20.6939 21.25 19.1139V17.1139C21.25 15.5339 20.58 14.8639 19 14.8639H17Z" fill="#64748B"/>
<path d="M7 22.8639H5C2.58 22.8639 1.25 21.5339 1.25 19.1139V17.1139C1.25 14.6939 2.58 13.3639 5 13.3639H7C9.42 13.3639 10.75 14.6939 10.75 17.1139V19.1139C10.75 21.5339 9.42 22.8639 7 22.8639ZM5 14.8639C3.42 14.8639 2.75 15.5339 2.75 17.1139V19.1139C2.75 20.6939 3.42 21.3639 5 21.3639H7C8.58 21.3639 9.25 20.6939 9.25 19.1139V17.1139C9.25 15.5339 8.58 14.8639 7 14.8639H5Z" fill="#64748B"/>
</svg>
