<svg width="24" height="25" viewBox="0 0 24 25" fill="none" xmlns="http://www.w3.org/2000/svg">
<path d="M17 21.3643H7C3.35 21.3643 1.25 19.2643 1.25 15.6143V8.61426C1.25 4.96426 3.35 2.86426 7 2.86426H17C20.65 2.86426 22.75 4.96426 22.75 8.61426V15.6143C22.75 19.2643 20.65 21.3643 17 21.3643ZM7 4.36426C4.14 4.36426 2.75 5.75426 2.75 8.61426V15.6143C2.75 18.4743 4.14 19.8643 7 19.8643H17C19.86 19.8643 21.25 18.4743 21.25 15.6143V8.61426C21.25 5.75426 19.86 4.36426 17 4.36426H7Z" fill="#64748B"/>
<path d="M12 15.8643C9.93 15.8643 8.25 14.1843 8.25 12.1143C8.25 10.0443 9.93 8.36426 12 8.36426C14.07 8.36426 15.75 10.0443 15.75 12.1143C15.75 14.1843 14.07 15.8643 12 15.8643ZM12 9.86426C10.76 9.86426 9.75 10.8743 9.75 12.1143C9.75 13.3543 10.76 14.3643 12 14.3643C13.24 14.3643 14.25 13.3543 14.25 12.1143C14.25 10.8743 13.24 9.86426 12 9.86426Z" fill="#64748B"/>
<path d="M5.5 15.3643C5.09 15.3643 4.75 15.0243 4.75 14.6143V9.61426C4.75 9.20426 5.09 8.86426 5.5 8.86426C5.91 8.86426 6.25 9.20426 6.25 9.61426V14.6143C6.25 15.0243 5.91 15.3643 5.5 15.3643Z" fill="#64748B"/>
<path d="M18.5 15.3643C18.09 15.3643 17.75 15.0243 17.75 14.6143V9.61426C17.75 9.20426 18.09 8.86426 18.5 8.86426C18.91 8.86426 19.25 9.20426 19.25 9.61426V14.6143C19.25 15.0243 18.91 15.3643 18.5 15.3643Z" fill="#64748B"/>
</svg>
