<svg width="24" height="25" viewBox="0 0 24 25" fill="none" xmlns="http://www.w3.org/2000/svg">
<path d="M10.1098 18.2639H6.31982C5.90982 18.2639 5.56982 17.9239 5.56982 17.5139V12.3939C5.56982 11.3539 6.41981 10.5039 7.45981 10.5039H10.1098C10.5198 10.5039 10.8598 10.8439 10.8598 11.2539V17.5039C10.8598 17.9239 10.5198 18.2639 10.1098 18.2639ZM7.06982 16.7639H9.3598V12.0139H7.45981C7.24981 12.0139 7.06982 12.1839 7.06982 12.4039V16.7639V16.7639Z" fill="#64748B"/>
<path d="M13.8901 18.2639H10.1001C9.6901 18.2639 9.3501 17.9239 9.3501 17.5139V7.85388C9.3501 6.81388 10.2001 5.96387 11.2401 5.96387H12.7601C13.8001 5.96387 14.6501 6.81388 14.6501 7.85388V17.5139C14.6401 17.9239 14.3101 18.2639 13.8901 18.2639ZM10.8601 16.7639H13.1501V7.85388C13.1501 7.64388 12.9801 7.46387 12.7601 7.46387H11.2401C11.0301 7.46387 10.8501 7.63388 10.8501 7.85388V16.7639H10.8601Z" fill="#64748B"/>
<path d="M17.6801 18.2639H13.8901C13.4801 18.2639 13.1401 17.9239 13.1401 17.5139V12.9639C13.1401 12.5539 13.4801 12.2139 13.8901 12.2139H16.5401C17.5801 12.2139 18.4301 13.0639 18.4301 14.1039V17.5139C18.4301 17.9239 18.1001 18.2639 17.6801 18.2639ZM14.6401 16.7639H16.9301V14.1039C16.9301 13.8939 16.7601 13.7139 16.5401 13.7139H14.6401V16.7639V16.7639Z" fill="#64748B"/>
<path d="M15 22.8639H9C3.57 22.8639 1.25 20.5439 1.25 15.1139V9.11389C1.25 3.68389 3.57 1.36389 9 1.36389H15C20.43 1.36389 22.75 3.68389 22.75 9.11389V15.1139C22.75 20.5439 20.43 22.8639 15 22.8639ZM9 2.86389C4.39 2.86389 2.75 4.50389 2.75 9.11389V15.1139C2.75 19.7239 4.39 21.3639 9 21.3639H15C19.61 21.3639 21.25 19.7239 21.25 15.1139V9.11389C21.25 4.50389 19.61 2.86389 15 2.86389H9Z" fill="#64748B"/>
</svg>
